<svg width="14" height="15" viewBox="0 0 14 15" fill="none" xmlns="http://www.w3.org/2000/svg">
<path fill-rule="evenodd" clip-rule="evenodd" d="M1.67907 2.76256C2.00726 2.43437 2.45238 2.25 2.9165 2.25H11.0832C11.5473 2.25 11.9924 2.43437 12.3206 2.76256C12.6488 3.09075 12.8332 3.53587 12.8332 4V4.875C12.8332 5.19717 12.572 5.45833 12.2498 5.45833C11.9277 5.45833 11.6665 5.19717 11.6665 4.875V4C11.6665 3.84529 11.605 3.69692 11.4956 3.58752C11.3863 3.47812 11.2379 3.41667 11.0832 3.41667H2.9165C2.76179 3.41667 2.61342 3.47812 2.50402 3.58752C2.39463 3.69692 2.33317 3.84529 2.33317 4V12.1667C2.33317 12.3214 2.39463 12.4697 2.50402 12.5791C2.61342 12.6885 2.76179 12.75 2.9165 12.75H4.95817C5.28034 12.75 5.5415 13.0112 5.5415 13.3333C5.5415 13.6555 5.28034 13.9167 4.95817 13.9167H2.9165C2.45237 13.9167 2.00726 13.7323 1.67907 13.4041C1.35088 13.0759 1.1665 12.6308 1.1665 12.1667V4C1.1665 3.53587 1.35088 3.09075 1.67907 2.76256Z" fill="#475569"/>
<path fill-rule="evenodd" clip-rule="evenodd" d="M9.33333 1.0835C9.6555 1.0835 9.91667 1.34466 9.91667 1.66683V4.00016C9.91667 4.32233 9.6555 4.5835 9.33333 4.5835C9.01117 4.5835 8.75 4.32233 8.75 4.00016V1.66683C8.75 1.34466 9.01117 1.0835 9.33333 1.0835Z" fill="#475569"/>
<path fill-rule="evenodd" clip-rule="evenodd" d="M4.66683 1.0835C4.989 1.0835 5.25016 1.34466 5.25016 1.66683V4.00016C5.25016 4.32233 4.989 4.5835 4.66683 4.5835C4.34466 4.5835 4.0835 4.32233 4.0835 4.00016V1.66683C4.0835 1.34466 4.34466 1.0835 4.66683 1.0835Z" fill="#475569"/>
<path fill-rule="evenodd" clip-rule="evenodd" d="M1.1665 6.33333C1.1665 6.01117 1.42767 5.75 1.74984 5.75H4.6665C4.98867 5.75 5.24984 6.01117 5.24984 6.33333C5.24984 6.6555 4.98867 6.91667 4.6665 6.91667H1.74984C1.42767 6.91667 1.1665 6.6555 1.1665 6.33333Z" fill="#475569"/>
<path fill-rule="evenodd" clip-rule="evenodd" d="M9.33333 8.0835C9.6555 8.0835 9.91667 8.34466 9.91667 8.66683V9.70611L10.5818 10.2604C10.8293 10.4666 10.8627 10.8344 10.6565 11.0819C10.4502 11.3294 10.0824 11.3629 9.83489 11.1566L8.95989 10.4275C8.8269 10.3166 8.75 10.1525 8.75 9.97933V8.66683C8.75 8.34466 9.01117 8.0835 9.33333 8.0835Z" fill="#475569"/>
<path fill-rule="evenodd" clip-rule="evenodd" d="M9.33333 6.91667C8.55979 6.91667 7.81792 7.22396 7.27094 7.77094C6.72396 8.31792 6.41667 9.05979 6.41667 9.83333C6.41667 10.6069 6.72396 11.3487 7.27094 11.8957C7.81792 12.4427 8.55979 12.75 9.33333 12.75C10.1069 12.75 10.8487 12.4427 11.3957 11.8957C11.9427 11.3487 12.25 10.6069 12.25 9.83333C12.25 9.05979 11.9427 8.31792 11.3957 7.77094C10.8487 7.22396 10.1069 6.91667 9.33333 6.91667ZM6.44598 6.94598C7.21175 6.18021 8.25037 5.75 9.33333 5.75C10.4163 5.75 11.4549 6.18021 12.2207 6.94598C12.9865 7.71175 13.4167 8.75037 13.4167 9.83333C13.4167 10.9163 12.9865 11.9549 12.2207 12.7207C11.4549 13.4865 10.4163 13.9167 9.33333 13.9167C8.25037 13.9167 7.21175 13.4865 6.44598 12.7207C5.68021 11.9549 5.25 10.9163 5.25 9.83333C5.25 8.75037 5.68021 7.71175 6.44598 6.94598Z" fill="#475569"/>
</svg>
