<svg width="14" height="15" viewBox="0 0 14 15" fill="none" xmlns="http://www.w3.org/2000/svg">
<path d="M9.33317 12.75V11.5833C9.33317 10.9645 9.08734 10.371 8.64975 9.93342C8.21217 9.49583 7.61868 9.25 6.99984 9.25H3.49984C2.881 9.25 2.28751 9.49583 1.84992 9.93342C1.41234 10.371 1.1665 10.9645 1.1665 11.5833V12.75" stroke="#889BFF" stroke-width="1.16667" stroke-linecap="round" stroke-linejoin="round"/>
<path d="M5.24984 6.91667C6.5385 6.91667 7.58317 5.872 7.58317 4.58333C7.58317 3.29467 6.5385 2.25 5.24984 2.25C3.96117 2.25 2.9165 3.29467 2.9165 4.58333C2.9165 5.872 3.96117 6.91667 5.24984 6.91667Z" stroke="#889BFF" stroke-width="1.16667" stroke-linecap="round" stroke-linejoin="round"/>
<path d="M12.8335 12.7499V11.5832C12.8331 11.0662 12.661 10.564 12.3443 10.1554C12.0275 9.74677 11.5841 9.45493 11.0835 9.32568" stroke="#889BFF" stroke-width="1.16667" stroke-linecap="round" stroke-linejoin="round"/>
<path d="M9.3335 2.32568C9.8354 2.45419 10.2803 2.74609 10.598 3.15536C10.9156 3.56464 11.0881 4.068 11.0881 4.5861C11.0881 5.1042 10.9156 5.60756 10.598 6.01684C10.2803 6.42611 9.8354 6.71801 9.3335 6.84652" stroke="#889BFF" stroke-width="1.16667" stroke-linecap="round" stroke-linejoin="round"/>
</svg>
