<svg width="15" height="15" viewBox="0 0 15 15" fill="none" xmlns="http://www.w3.org/2000/svg">
<path fill-rule="evenodd" clip-rule="evenodd" d="M10.4165 1.66683C10.4165 1.34466 10.1553 1.0835 9.83317 1.0835C9.511 1.0835 9.24984 1.34466 9.24984 1.66683V2.25016H5.74984V1.66683C5.74984 1.34466 5.48867 1.0835 5.1665 1.0835C4.84434 1.0835 4.58317 1.34466 4.58317 1.66683V2.25016H3.4165C2.95238 2.25016 2.50726 2.43454 2.17907 2.76273C1.85088 3.09091 1.6665 3.53603 1.6665 4.00016V6.3335V12.1668C1.6665 12.631 1.85088 13.0761 2.17907 13.4043C2.50726 13.7325 2.95237 13.9168 3.4165 13.9168H5.45817C5.78034 13.9168 6.0415 13.6557 6.0415 13.3335C6.0415 13.0113 5.78034 12.7502 5.45817 12.7502H3.4165C3.26179 12.7502 3.11342 12.6887 3.00402 12.5793C2.89463 12.4699 2.83317 12.3215 2.83317 12.1668V6.91683H5.1665C5.48867 6.91683 5.74984 6.65566 5.74984 6.3335C5.74984 6.01133 5.48867 5.75016 5.1665 5.75016H2.83317V4.00016C2.83317 3.84545 2.89463 3.69708 3.00402 3.58768C3.11342 3.47829 3.26179 3.41683 3.4165 3.41683H4.58317V4.00016C4.58317 4.32233 4.84434 4.5835 5.1665 4.5835C5.48867 4.5835 5.74984 4.32233 5.74984 4.00016V3.41683H9.24984V4.00016C9.24984 4.32233 9.511 4.5835 9.83317 4.5835C10.1553 4.5835 10.4165 4.32233 10.4165 4.00016V3.41683H11.5832C11.7379 3.41683 11.8863 3.47829 11.9956 3.58768C12.105 3.69708 12.1665 3.84545 12.1665 4.00016V4.87516C12.1665 5.19733 12.4277 5.4585 12.7498 5.4585C13.072 5.4585 13.3332 5.19733 13.3332 4.87516V4.00016C13.3332 3.53603 13.1488 3.09091 12.8206 2.76273C12.4924 2.43454 12.0473 2.25016 11.5832 2.25016H10.4165V1.66683ZM9.83317 8.0835C10.1553 8.0835 10.4165 8.34466 10.4165 8.66683V9.70611L11.0816 10.2604C11.3291 10.4666 11.3625 10.8344 11.1563 11.0819C10.9501 11.3294 10.5822 11.3629 10.3347 11.1566L9.45973 10.4275C9.32673 10.3166 9.24984 10.1525 9.24984 9.97933V8.66683C9.24984 8.34466 9.511 8.0835 9.83317 8.0835ZM7.77078 7.7711C8.31776 7.22412 9.05962 6.91683 9.83317 6.91683C10.6067 6.91683 11.3486 7.22412 11.8956 7.7711C12.4425 8.31808 12.7498 9.05995 12.7498 9.8335C12.7498 10.607 12.4425 11.3489 11.8956 11.8959C11.3486 12.4429 10.6067 12.7502 9.83317 12.7502C9.05962 12.7502 8.31776 12.4429 7.77078 11.8959C7.22379 11.3489 6.9165 10.607 6.9165 9.8335C6.9165 9.05995 7.22379 8.31808 7.77078 7.7711ZM9.83317 5.75016C8.7502 5.75016 7.71159 6.18037 6.94582 6.94614C6.18004 7.71192 5.74984 8.75053 5.74984 9.8335C5.74984 10.9165 6.18004 11.9551 6.94582 12.7208C7.71159 13.4866 8.7502 13.9168 9.83317 13.9168C10.9161 13.9168 11.9548 13.4866 12.7205 12.7208C13.4863 11.9551 13.9165 10.9165 13.9165 9.8335C13.9165 8.75053 13.4863 7.71192 12.7205 6.94614C11.9548 6.18037 10.9161 5.75016 9.83317 5.75016Z" fill="black"/>
</svg>
