<svg width="14" height="15" viewBox="0 0 14 15" fill="none" xmlns="http://www.w3.org/2000/svg">
<path d="M6.41699 2.8335H2.33366C2.02424 2.8335 1.72749 2.95641 1.5087 3.1752C1.28991 3.394 1.16699 3.69074 1.16699 4.00016V12.1668C1.16699 12.4762 1.28991 12.773 1.5087 12.9918C1.72749 13.2106 2.02424 13.3335 2.33366 13.3335H10.5003C10.8097 13.3335 11.1065 13.2106 11.3253 12.9918C11.5441 12.773 11.667 12.4762 11.667 12.1668V8.0835" stroke="#475569" stroke-width="1.16667" stroke-linecap="round" stroke-linejoin="round"/>
<path d="M10.792 1.95863C11.0241 1.72656 11.3388 1.59619 11.667 1.59619C11.9952 1.59619 12.3099 1.72656 12.542 1.95863C12.7741 2.19069 12.9044 2.50544 12.9044 2.83363C12.9044 3.16182 12.7741 3.47656 12.542 3.70863L7.00033 9.2503L4.66699 9.83363L5.25033 7.5003L10.792 1.95863Z" stroke="#475569" stroke-width="1.16667" stroke-linecap="round" stroke-linejoin="round"/>
</svg>
