<svg width="15" height="15" viewBox="0 0 15 15" fill="none" xmlns="http://www.w3.org/2000/svg">
<path d="M6.9165 2.8335H2.83317C2.52375 2.8335 2.22701 2.95641 2.00821 3.1752C1.78942 3.394 1.6665 3.69074 1.6665 4.00016V12.1668C1.6665 12.4762 1.78942 12.773 2.00821 12.9918C2.22701 13.2106 2.52375 13.3335 2.83317 13.3335H10.9998C11.3093 13.3335 11.606 13.2106 11.8248 12.9918C12.0436 12.773 12.1665 12.4762 12.1665 12.1668V8.0835" stroke="#475569" stroke-width="1.16667" stroke-linecap="round" stroke-linejoin="round"/>
<path d="M11.2915 1.95863C11.5236 1.72656 11.8383 1.59619 12.1665 1.59619C12.4947 1.59619 12.8094 1.72656 13.0415 1.95863C13.2736 2.19069 13.4039 2.50544 13.4039 2.83363C13.4039 3.16182 13.2736 3.47656 13.0415 3.70863L7.49984 9.2503L5.1665 9.83363L5.74984 7.5003L11.2915 1.95863Z" stroke="#475569" stroke-width="1.16667" stroke-linecap="round" stroke-linejoin="round"/>
</svg>
