<svg width="17" height="16" viewBox="0 0 17 16" fill="none" xmlns="http://www.w3.org/2000/svg">
<path d="M10.8332 7.33333C10.8332 7.63975 10.7728 7.94317 10.6556 8.22626C10.5383 8.50935 10.3664 8.76658 10.1498 8.98325C9.93308 9.19992 9.67586 9.37179 9.39277 9.48905C9.10967 9.60631 8.80626 9.66667 8.49984 9.66667C8.19342 9.66667 7.89 9.60631 7.60691 9.48905C7.32382 9.37179 7.06659 9.19992 6.84992 8.98325C6.63325 8.76658 6.46138 8.50935 6.34412 8.22626C6.22686 7.94317 6.1665 7.63975 6.1665 7.33333C6.1665 6.71449 6.41234 6.121 6.84992 5.68342C7.28751 5.24583 7.881 5 8.49984 5C9.11868 5 9.71217 5.24583 10.1498 5.68342C10.5873 6.121 10.8332 6.71449 10.8332 7.33333Z" stroke="#475569" stroke-width="1.17" stroke-linecap="round" stroke-linejoin="round"/>
<path d="M8.5 1.3335C11.7467 1.3335 14.5 4.02216 14.5 7.28416C14.5 10.5975 11.702 12.9235 9.118 14.5042C8.92934 14.6103 8.71649 14.6661 8.5 14.6661C8.28351 14.6661 8.07066 14.6103 7.882 14.5042C5.302 12.9088 2.5 10.6102 2.5 7.28483C2.5 4.02216 5.25333 1.3335 8.5 1.3335Z" stroke="#475569" stroke-width="1.17" stroke-linecap="round" stroke-linejoin="round"/>
</svg>
