<svg width="14" height="14" viewBox="0 0 14 14" fill="none" xmlns="http://www.w3.org/2000/svg">
<path fill-rule="evenodd" clip-rule="evenodd" d="M5.35041 2.43358C5.78799 1.996 6.38149 1.75016 7.00033 1.75016C7.61916 1.75016 8.21266 1.996 8.65024 2.43358C9.08783 2.87117 9.33366 3.46466 9.33366 4.0835V5.8335H4.66699V4.0835C4.66699 3.46466 4.91282 2.87117 5.35041 2.43358ZM3.50033 5.8335V4.0835C3.50033 3.15524 3.86907 2.265 4.52545 1.60862C5.18183 0.952245 6.07207 0.583496 7.00033 0.583496C7.92858 0.583496 8.81882 0.952245 9.4752 1.60862C10.1316 2.265 10.5003 3.15524 10.5003 4.0835V5.8335H11.0837C12.0502 5.8335 12.8337 6.617 12.8337 7.5835V11.6668C12.8337 12.6333 12.0502 13.4168 11.0837 13.4168H2.91699C1.95049 13.4168 1.16699 12.6333 1.16699 11.6668V7.5835C1.16699 6.617 1.95049 5.8335 2.91699 5.8335H3.50033ZM9.91699 7.00016H4.08366L2.91699 7.00016C2.59483 7.00016 2.33366 7.26133 2.33366 7.5835V11.6668C2.33366 11.989 2.59483 12.2502 2.91699 12.2502H11.0837C11.4058 12.2502 11.667 11.989 11.667 11.6668V7.5835C11.667 7.26133 11.4058 7.00016 11.0837 7.00016L9.91699 7.00016Z" fill="black"/>
</svg>
