<svg width="15" height="14" viewBox="0 0 15 14" fill="none" xmlns="http://www.w3.org/2000/svg">
<path fill-rule="evenodd" clip-rule="evenodd" d="M5.84992 2.43358C6.28751 1.996 6.881 1.75016 7.49984 1.75016C8.11868 1.75016 8.71217 1.996 9.14975 2.43358C9.58734 2.87117 9.83317 3.46466 9.83317 4.0835V5.8335H5.1665V4.0835C5.1665 3.46466 5.41234 2.87117 5.84992 2.43358ZM3.99984 5.8335V4.0835C3.99984 3.15524 4.36859 2.265 5.02496 1.60862C5.68134 0.952245 6.57158 0.583496 7.49984 0.583496C8.42809 0.583496 9.31833 0.952245 9.97471 1.60862C10.6311 2.265 10.9998 3.15524 10.9998 4.0835V5.8335H11.5832C12.5497 5.8335 13.3332 6.617 13.3332 7.5835V11.6668C13.3332 12.6333 12.5497 13.4168 11.5832 13.4168H3.4165C2.45001 13.4168 1.6665 12.6333 1.6665 11.6668V7.5835C1.6665 6.617 2.45001 5.8335 3.4165 5.8335H3.99984ZM10.4165 7.00016H4.58317L3.4165 7.00016C3.09434 7.00016 2.83317 7.26133 2.83317 7.5835V11.6668C2.83317 11.989 3.09434 12.2502 3.4165 12.2502H11.5832C11.9053 12.2502 12.1665 11.989 12.1665 11.6668V7.5835C12.1665 7.26133 11.9053 7.00016 11.5832 7.00016L10.4165 7.00016Z" fill="#475569"/>
</svg>
