<svg width="45" height="44" viewBox="0 0 45 44" fill="none" xmlns="http://www.w3.org/2000/svg">
<rect x="1" y="0.5" width="43" height="43" rx="21.5" fill="white" fill-opacity="0.5"/>
<rect x="1" y="0.5" width="43" height="43" rx="21.5" stroke="white"/>
<path fill-rule="evenodd" clip-rule="evenodd" d="M29.5 11C30.0523 11 30.5 11.4477 30.5 12V14H32.5C33.0523 14 33.5 14.4477 33.5 15C33.5 15.5523 33.0523 16 32.5 16H30.5V18C30.5 18.5523 30.0523 19 29.5 19C28.9477 19 28.5 18.5523 28.5 18V16H26.5C25.9477 16 25.5 15.5523 25.5 15C25.5 14.4477 25.9477 14 26.5 14H28.5V12C28.5 11.4477 28.9477 11 29.5 11ZM15.5 14C15.2348 14 14.9804 14.1054 14.7929 14.2929C14.6054 14.4804 14.5 14.7348 14.5 15V29C14.5 29.2652 14.6054 29.5196 14.7929 29.7071C14.9804 29.8946 15.2348 30 15.5 30H16.0857L24.879 21.2067C25.4416 20.6443 26.2045 20.3284 27 20.3284C27.7955 20.3284 28.5584 20.6443 29.121 21.2067L30.5 22.5857V22C30.5 21.4477 30.9477 21 31.5 21C32.0523 21 32.5 21.4477 32.5 22V24.998V25.0019V29C32.5 29.7957 32.1839 30.5587 31.6213 31.1213C31.0587 31.6839 30.2957 32 29.5 32H15.5C14.7043 32 13.9413 31.6839 13.3787 31.1213C12.8161 30.5587 12.5 29.7957 12.5 29V15C12.5 14.2044 12.8161 13.4413 13.3787 12.8787C13.9413 12.3161 14.7044 12 15.5 12H22.5C23.0523 12 23.5 12.4477 23.5 13C23.5 13.5523 23.0523 14 22.5 14H15.5ZM29.5 30H18.9142L26.2931 22.621C26.4806 22.4336 26.7349 22.3284 27 22.3284C27.2651 22.3284 27.5195 22.4338 27.707 22.6212L30.5 25.4142V29C30.5 29.2652 30.3946 29.5196 30.2071 29.7071C30.0196 29.8946 29.7652 30 29.5 30ZM18.5 19C18.5 18.4477 18.9477 18 19.5 18C20.0523 18 20.5 18.4477 20.5 19C20.5 19.5523 20.0523 20 19.5 20C18.9477 20 18.5 19.5523 18.5 19ZM19.5 16C17.8431 16 16.5 17.3431 16.5 19C16.5 20.6569 17.8431 22 19.5 22C21.1569 22 22.5 20.6569 22.5 19C22.5 17.3431 21.1569 16 19.5 16Z" fill="white"/>
</svg>
