<svg width="15" height="15" viewBox="0 0 15 15" fill="none" xmlns="http://www.w3.org/2000/svg">
<path fill-rule="evenodd" clip-rule="evenodd" d="M4.00065 4.58366C4.00065 3.61716 4.78415 2.83366 5.75065 2.83366C6.71715 2.83366 7.50065 3.61716 7.50065 4.58366C7.50065 5.55016 6.71715 6.33366 5.75065 6.33366C4.78415 6.33366 4.00065 5.55016 4.00065 4.58366ZM5.75065 1.66699C4.13982 1.66699 2.83398 2.97283 2.83398 4.58366C2.83398 6.19449 4.13982 7.50033 5.75065 7.50033C7.36148 7.50033 8.66732 6.19449 8.66732 4.58366C8.66732 2.97283 7.36148 1.66699 5.75065 1.66699ZM4.00065 8.66699C3.2271 8.66699 2.48524 8.97428 1.93826 9.52127C1.39128 10.0682 1.08398 10.8101 1.08398 11.5837V12.7503C1.08398 13.0725 1.34515 13.3337 1.66732 13.3337C1.98948 13.3337 2.25065 13.0725 2.25065 12.7503V11.5837C2.25065 11.1195 2.43503 10.6744 2.76321 10.3462C3.0914 10.018 3.53652 9.83366 4.00065 9.83366H7.50065C7.96478 9.83366 8.4099 10.018 8.73809 10.3462C9.06628 10.6744 9.25065 11.1195 9.25065 11.5837V12.7503C9.25065 13.0725 9.51182 13.3337 9.83399 13.3337C10.1562 13.3337 10.4173 13.0725 10.4173 12.7503V11.5837C10.4173 10.8101 10.11 10.0682 9.56305 9.52127C9.01607 8.97428 8.2742 8.66699 7.50065 8.66699H4.00065ZM11.0192 9.18026C11.0997 8.86832 11.4179 8.68074 11.7298 8.76128C12.3555 8.92284 12.9099 9.28763 13.3058 9.79838C13.7017 10.3091 13.9168 10.9369 13.9173 11.5832L13.9173 11.5836V12.7503C13.9173 13.0724 13.6562 13.3336 13.334 13.3336C13.0118 13.3336 12.7507 13.0724 12.7507 12.7503V11.584V11.5839C12.7503 11.1962 12.6213 10.8196 12.3837 10.5132C12.1462 10.2067 11.8136 9.98784 11.4382 9.8909C11.1262 9.81036 10.9386 9.49219 11.0192 9.18026ZM9.97867 1.76099C9.66658 1.68108 9.34879 1.8693 9.26888 2.1814C9.18897 2.4935 9.3772 2.81128 9.6893 2.89119C10.0657 2.98758 10.3994 3.2065 10.6376 3.51346C10.8759 3.82041 11.0052 4.19793 11.0052 4.58651C11.0052 4.97508 10.8759 5.3526 10.6376 5.65956C10.3994 5.96651 10.0657 6.18544 9.6893 6.28182C9.3772 6.36173 9.18897 6.67951 9.26888 6.99161C9.34879 7.30371 9.66658 7.49194 9.97867 7.41203C10.6061 7.25139 11.1621 6.88652 11.5592 6.37493C11.9564 5.86334 12.1719 5.23413 12.1719 4.58651C12.1719 3.93888 11.9564 3.30968 11.5592 2.79809C11.1621 2.2865 10.6061 1.92162 9.97867 1.76099Z" fill="#475569"/>
</svg>
