<svg width="14" height="15" viewBox="0 0 14 15" fill="none" xmlns="http://www.w3.org/2000/svg">
<path fill-rule="evenodd" clip-rule="evenodd" d="M3.50065 4.58366C3.50065 3.61716 4.28415 2.83366 5.25065 2.83366C6.21715 2.83366 7.00065 3.61716 7.00065 4.58366C7.00065 5.55016 6.21715 6.33366 5.25065 6.33366C4.28415 6.33366 3.50065 5.55016 3.50065 4.58366ZM5.25065 1.66699C3.63982 1.66699 2.33398 2.97283 2.33398 4.58366C2.33398 6.19449 3.63982 7.50033 5.25065 7.50033C6.86148 7.50033 8.16732 6.19449 8.16732 4.58366C8.16732 2.97283 6.86148 1.66699 5.25065 1.66699ZM3.50065 8.66699C2.7271 8.66699 1.98524 8.97428 1.43826 9.52127C0.891275 10.0682 0.583984 10.8101 0.583984 11.5837V12.7503C0.583984 13.0725 0.845152 13.3337 1.16732 13.3337C1.48948 13.3337 1.75065 13.0725 1.75065 12.7503V11.5837C1.75065 11.1195 1.93503 10.6744 2.26321 10.3462C2.5914 10.018 3.03652 9.83366 3.50065 9.83366H7.00065C7.46478 9.83366 7.9099 10.018 8.23809 10.3462C8.56628 10.6744 8.75065 11.1195 8.75065 11.5837V12.7503C8.75065 13.0725 9.01182 13.3337 9.33399 13.3337C9.65615 13.3337 9.91732 13.0725 9.91732 12.7503V11.5837C9.91732 10.8101 9.61003 10.0682 9.06305 9.52127C8.51607 8.97428 7.7742 8.66699 7.00065 8.66699H3.50065ZM10.5192 9.18026C10.5997 8.86832 10.9179 8.68074 11.2298 8.76128C11.8555 8.92284 12.4099 9.28763 12.8058 9.79838C13.2017 10.3091 13.4168 10.9369 13.4173 11.5832L13.4173 11.5836V12.7503C13.4173 13.0724 13.1562 13.3336 12.834 13.3336C12.5118 13.3336 12.2507 13.0724 12.2507 12.7503V11.584V11.5839C12.2503 11.1962 12.1213 10.8196 11.8837 10.5132C11.6462 10.2067 11.3136 9.98784 10.9382 9.8909C10.6262 9.81036 10.4386 9.49219 10.5192 9.18026ZM9.47867 1.76099C9.16658 1.68108 8.84879 1.8693 8.76888 2.1814C8.68897 2.4935 8.8772 2.81128 9.1893 2.89119C9.56573 2.98758 9.89937 3.2065 10.1376 3.51346C10.3759 3.82041 10.5052 4.19793 10.5052 4.58651C10.5052 4.97508 10.3759 5.3526 10.1376 5.65956C9.89937 5.96651 9.56573 6.18544 9.1893 6.28182C8.8772 6.36173 8.68897 6.67951 8.76888 6.99161C8.84879 7.30371 9.16658 7.49194 9.47867 7.41203C10.1061 7.25139 10.6621 6.88652 11.0592 6.37493C11.4564 5.86334 11.6719 5.23413 11.6719 4.58651C11.6719 3.93888 11.4564 3.30968 11.0592 2.79809C10.6621 2.2865 10.1061 1.92162 9.47867 1.76099Z" fill="black"/>
</svg>
