<svg width="14" height="14" viewBox="0 0 14 14" fill="none" xmlns="http://www.w3.org/2000/svg">
<path fill-rule="evenodd" clip-rule="evenodd" d="M9.9165 1.16634C9.9165 0.844175 9.65534 0.583008 9.33317 0.583008C9.011 0.583008 8.74984 0.844175 8.74984 1.16634V1.74967H5.24984V1.16634C5.24984 0.844175 4.98867 0.583008 4.6665 0.583008C4.34434 0.583008 4.08317 0.844175 4.08317 1.16634V1.74967H2.9165C2.45238 1.74967 2.00726 1.93405 1.67907 2.26224C1.35088 2.59043 1.1665 3.03555 1.1665 3.49967V5.83301V11.6663C1.1665 12.1305 1.35088 12.5756 1.67907 12.9038C2.00726 13.232 2.45237 13.4163 2.9165 13.4163H4.95817C5.28034 13.4163 5.5415 13.1552 5.5415 12.833C5.5415 12.5108 5.28034 12.2497 4.95817 12.2497H2.9165C2.76179 12.2497 2.61342 12.1882 2.50402 12.0788C2.39463 11.9694 2.33317 11.8211 2.33317 11.6663V6.41634H4.6665C4.98867 6.41634 5.24984 6.15517 5.24984 5.83301C5.24984 5.51084 4.98867 5.24967 4.6665 5.24967H2.33317V3.49967C2.33317 3.34496 2.39463 3.19659 2.50402 3.0872C2.61342 2.9778 2.76179 2.91634 2.9165 2.91634H4.08317V3.49967C4.08317 3.82184 4.34434 4.08301 4.6665 4.08301C4.98867 4.08301 5.24984 3.82184 5.24984 3.49967V2.91634H8.74984V3.49967C8.74984 3.82184 9.011 4.08301 9.33317 4.08301C9.65534 4.08301 9.9165 3.82184 9.9165 3.49967V2.91634H11.0832C11.2379 2.91634 11.3863 2.9778 11.4956 3.0872C11.605 3.19659 11.6665 3.34497 11.6665 3.49967V4.37467C11.6665 4.69684 11.9277 4.95801 12.2498 4.95801C12.572 4.95801 12.8332 4.69684 12.8332 4.37467V3.49967C12.8332 3.03555 12.6488 2.59043 12.3206 2.26224C11.9924 1.93405 11.5473 1.74967 11.0832 1.74967H9.9165V1.16634ZM9.33317 7.58301C9.65534 7.58301 9.9165 7.84417 9.9165 8.16634V9.20562L10.5816 9.75988C10.8291 9.96612 10.8625 10.334 10.6563 10.5814C10.4501 10.8289 10.0822 10.8624 9.83473 10.6561L8.95973 9.92697C8.82673 9.81614 8.74984 9.65196 8.74984 9.47884V8.16634C8.74984 7.84417 9.011 7.58301 9.33317 7.58301ZM7.27078 7.27061C7.81776 6.72363 8.55962 6.41634 9.33317 6.41634C10.1067 6.41634 10.8486 6.72363 11.3956 7.27061C11.9425 7.81759 12.2498 8.55946 12.2498 9.33301C12.2498 10.1066 11.9425 10.8484 11.3956 11.3954C10.8486 11.9424 10.1067 12.2497 9.33317 12.2497C8.55962 12.2497 7.81776 11.9424 7.27078 11.3954C6.72379 10.8484 6.4165 10.1066 6.4165 9.33301C6.4165 8.55946 6.72379 7.81759 7.27078 7.27061ZM9.33317 5.24967C8.2502 5.24967 7.21159 5.67988 6.44582 6.44566C5.68004 7.21143 5.24984 8.25004 5.24984 9.33301C5.24984 10.416 5.68004 11.4546 6.44582 12.2204C7.21159 12.9861 8.2502 13.4163 9.33317 13.4163C10.4161 13.4163 11.4548 12.9861 12.2205 12.2204C12.9863 11.4546 13.4165 10.416 13.4165 9.33301C13.4165 8.25004 12.9863 7.21143 12.2205 6.44566C11.4548 5.67988 10.4161 5.24967 9.33317 5.24967Z" fill="url(#paint0_linear_494_6917)"/>
<defs>
<linearGradient id="paint0_linear_494_6917" x1="2.42753" y1="4.08301" x2="11.1025" y2="15.7315" gradientUnits="userSpaceOnUse">
<stop stop-color="#007DFE"/>
<stop offset="1" stop-color="#04C7DB"/>
</linearGradient>
</defs>
</svg>
