<svg width="14" height="14" viewBox="0 0 14 14" fill="none" xmlns="http://www.w3.org/2000/svg">
<rect width="14" height="14" fill="white" fill-opacity="0.7"/>
<path fill-rule="evenodd" clip-rule="evenodd" d="M7.58366 1.16732C7.58366 0.845152 7.32249 0.583984 7.00033 0.583984C6.67816 0.583984 6.41699 0.845152 6.41699 1.16732V2.33398H5.54199C4.8458 2.33398 4.17812 2.61055 3.68584 3.10283C3.19355 3.59511 2.91699 4.26279 2.91699 4.95898C2.91699 5.65518 3.19355 6.32286 3.68584 6.81514C4.17812 7.30742 4.8458 7.58398 5.54199 7.58398H6.41699V10.5007H3.50033C3.17816 10.5007 2.91699 10.7618 2.91699 11.084C2.91699 11.4062 3.17816 11.6673 3.50033 11.6673H6.41699V12.834C6.41699 13.1562 6.67816 13.4173 7.00033 13.4173C7.32249 13.4173 7.58366 13.1562 7.58366 12.834V11.6673H8.45866C9.15485 11.6673 9.82253 11.3908 10.3148 10.8985C10.8071 10.4062 11.0837 9.73851 11.0837 9.04232C11.0837 8.34613 10.8071 7.67845 10.3148 7.18616C9.82253 6.69388 9.15485 6.41732 8.45866 6.41732H7.58366V3.50065H9.91699C10.2392 3.50065 10.5003 3.23948 10.5003 2.91732C10.5003 2.59515 10.2392 2.33398 9.91699 2.33398H7.58366V1.16732ZM6.41699 3.50065H5.54199C5.15522 3.50065 4.78429 3.6543 4.51079 3.92779C4.2373 4.20128 4.08366 4.57221 4.08366 4.95898C4.08366 5.34576 4.2373 5.71669 4.51079 5.99018C4.78429 6.26367 5.15522 6.41732 5.54199 6.41732H6.41699V3.50065ZM7.58366 7.58398V10.5007H8.45866C8.84543 10.5007 9.21637 10.347 9.48986 10.0735C9.76335 9.80003 9.91699 9.42909 9.91699 9.04232C9.91699 8.65554 9.76335 8.28461 9.48986 8.01112C9.21637 7.73763 8.84543 7.58398 8.45866 7.58398H7.58366Z" fill="url(#paint0_linear_494_6932)"/>
<defs>
<linearGradient id="paint0_linear_494_6932" x1="3.75768" y1="4.08398" x2="12.7569" y2="12.14" gradientUnits="userSpaceOnUse">
<stop stop-color="#007DFE"/>
<stop offset="1" stop-color="#04C7DB"/>
</linearGradient>
</defs>
</svg>
