<svg width="14" height="14" viewBox="0 0 14 14" fill="none" xmlns="http://www.w3.org/2000/svg">
<path fill-rule="evenodd" clip-rule="evenodd" d="M2.26256 1.09655C2.59075 0.768359 3.03587 0.583984 3.5 0.583984H8.16667H8.45833C8.61304 0.583984 8.76142 0.645443 8.87081 0.754839L12.0791 3.96317C12.1885 4.07257 12.25 4.22094 12.25 4.37565V4.66732V11.6673C12.25 12.1314 12.0656 12.5766 11.7374 12.9048C11.4092 13.2329 10.9641 13.4173 10.5 13.4173H3.5C3.03587 13.4173 2.59075 13.2329 2.26256 12.9048C1.93437 12.5766 1.75 12.1314 1.75 11.6673V2.33398C1.75 1.86986 1.93437 1.42474 2.26256 1.09655ZM3.5 1.75065H7.58333V4.66732C7.58333 4.98948 7.8445 5.25065 8.16667 5.25065H11.0833V11.6673C11.0833 11.822 11.0219 11.9704 10.9125 12.0798C10.8031 12.1892 10.6547 12.2507 10.5 12.2507H3.5C3.34529 12.2507 3.19692 12.1892 3.08752 12.0798C2.97812 11.9704 2.91667 11.822 2.91667 11.6673V2.33398C2.91667 2.17927 2.97813 2.0309 3.08752 1.92151C3.19692 1.81211 3.34529 1.75065 3.5 1.75065ZM8.75 4.08398H10.55L8.75 2.28394V4.08398ZM4.66667 7.00065C4.3445 7.00065 4.08333 7.26182 4.08333 7.58398C4.08333 7.90615 4.3445 8.16732 4.66667 8.16732H9.33333C9.6555 8.16732 9.91667 7.90615 9.91667 7.58398C9.91667 7.26182 9.6555 7.00065 9.33333 7.00065H4.66667ZM4.08333 9.91732C4.08333 9.59515 4.3445 9.33399 4.66667 9.33399H9.33333C9.6555 9.33399 9.91667 9.59515 9.91667 9.91732C9.91667 10.2395 9.6555 10.5007 9.33333 10.5007H4.66667C4.3445 10.5007 4.08333 10.2395 4.08333 9.91732ZM4.66667 4.66732C4.3445 4.66732 4.08333 4.92849 4.08333 5.25065C4.08333 5.57282 4.3445 5.83398 4.66667 5.83398H5.83333C6.1555 5.83398 6.41667 5.57282 6.41667 5.25065C6.41667 4.92849 6.1555 4.66732 5.83333 4.66732H4.66667Z" fill="url(#paint0_linear_494_6923)"/>
<defs>
<linearGradient id="paint0_linear_494_6923" x1="2.83088" y1="4.08398" x2="11.7966" y2="14.4031" gradientUnits="userSpaceOnUse">
<stop stop-color="#007DFE"/>
<stop offset="1" stop-color="#04C7DB"/>
</linearGradient>
</defs>
</svg>
