<svg width="14" height="14" viewBox="0 0 14 14" fill="none" xmlns="http://www.w3.org/2000/svg">
<path d="M8.83268 6.00033C8.83268 6.24108 8.78526 6.47948 8.69313 6.70191C8.60099 6.92434 8.46595 7.12645 8.29571 7.29669C8.12547 7.46693 7.92337 7.60197 7.70094 7.69411C7.47851 7.78624 7.24011 7.83366 6.99935 7.83366C6.75859 7.83366 6.52019 7.78624 6.29776 7.69411C6.07533 7.60197 5.87323 7.46693 5.70299 7.29669C5.53275 7.12645 5.3977 6.92434 5.30557 6.70191C5.21344 6.47948 5.16602 6.24108 5.16602 6.00033C5.16602 5.5141 5.35917 5.04778 5.70299 4.70396C6.0468 4.36015 6.51312 4.16699 6.99935 4.16699C7.48558 4.16699 7.95189 4.36015 8.29571 4.70396C8.63953 5.04778 8.83268 5.5141 8.83268 6.00033Z" stroke="url(#paint0_linear_685_17072)" stroke-linecap="round" stroke-linejoin="round"/>
<path d="M7 0.5C9.97672 0.5 12.5 2.97097 12.5 5.95067C12.5 7.45524 11.8675 8.754 10.8983 9.88507C9.92716 11.0184 8.63569 11.9613 7.36577 12.7388C7.25372 12.8004 7.12792 12.8326 7 12.8326C6.87243 12.8326 6.74697 12.8005 6.63515 12.7393C5.36532 11.9534 4.07411 11.0136 3.10262 9.88377C2.13327 8.75641 1.5 7.46169 1.5 5.95133C1.5 2.97093 4.02331 0.5 7 0.5Z" stroke="url(#paint1_linear_685_17072)" stroke-linecap="round" stroke-linejoin="round"/>
<defs>
<linearGradient id="paint0_linear_685_17072" x1="5.14641" y1="4.93972" x2="8.2561" y2="9.31418" gradientUnits="userSpaceOnUse">
<stop stop-color="#007DFE"/>
<stop offset="1" stop-color="#04C7DB"/>
</linearGradient>
<linearGradient id="paint1_linear_685_17072" x1="2.23529" y1="3.63617" x2="11.3861" y2="15.2222" gradientUnits="userSpaceOnUse">
<stop stop-color="#007DFE"/>
<stop offset="1" stop-color="#04C7DB"/>
</linearGradient>
</defs>
</svg>
