<svg width="14" height="14" viewBox="0 0 14 14" fill="none" xmlns="http://www.w3.org/2000/svg">
<path fill-rule="evenodd" clip-rule="evenodd" d="M5.35041 2.43407C5.78799 1.99648 6.38149 1.75065 7.00033 1.75065C7.61916 1.75065 8.21266 1.99648 8.65024 2.43407C9.08783 2.87165 9.33366 3.46515 9.33366 4.08398V5.83398H4.66699V4.08398C4.66699 3.46515 4.91282 2.87165 5.35041 2.43407ZM3.50033 5.83398V4.08398C3.50033 3.15573 3.86907 2.26549 4.52545 1.60911C5.18183 0.952733 6.07207 0.583984 7.00033 0.583984C7.92858 0.583984 8.81882 0.952733 9.4752 1.60911C10.1316 2.26549 10.5003 3.15573 10.5003 4.08398V5.83398H11.0837C12.0502 5.83398 12.8337 6.61749 12.8337 7.58398V11.6673C12.8337 12.6338 12.0502 13.4173 11.0837 13.4173H2.91699C1.95049 13.4173 1.16699 12.6338 1.16699 11.6673V7.58398C1.16699 6.61749 1.95049 5.83398 2.91699 5.83398H3.50033ZM9.91699 7.00065H4.08366L2.91699 7.00065C2.59483 7.00065 2.33366 7.26182 2.33366 7.58398V11.6673C2.33366 11.9895 2.59483 12.2507 2.91699 12.2507H11.0837C11.4058 12.2507 11.667 11.9895 11.667 11.6673V7.58398C11.667 7.26182 11.4058 7.00065 11.0837 7.00065L9.91699 7.00065Z" fill="url(#paint0_linear_494_6928)"/>
<defs>
<linearGradient id="paint0_linear_494_6928" x1="2.36797" y1="4.08398" x2="11.1553" y2="15.3215" gradientUnits="userSpaceOnUse">
<stop stop-color="#007DFE"/>
<stop offset="1" stop-color="#04C7DB"/>
</linearGradient>
</defs>
</svg>
