<svg width="54" height="48" viewBox="0 0 54 48" fill="none" xmlns="http://www.w3.org/2000/svg">
<path d="M52.7311 34.3642C51.8637 31.7706 49.179 30.1767 46.4857 30.6495L35.5344 32.5817C35.1397 31.2676 34.2592 30.1312 33.0557 29.4265L24.401 24.3521C22.8072 23.4153 20.9856 22.9209 19.1337 22.9209H4.44622C2.53358 22.9209 0.976562 24.4779 0.976562 26.3906V38.7664C0.976562 40.679 2.53358 42.236 4.44622 42.236H11.0169C12.1229 42.236 13.231 42.5006 14.2176 42.9972L22.6359 47.2519C23.6182 47.7485 24.6873 48 25.7629 48C26.4178 48 27.077 47.9068 27.7189 47.7181L49.0225 41.4683C50.4863 41.039 51.6812 40.0588 52.3881 38.7056C53.095 37.3524 53.2168 35.8106 52.7311 34.3642ZM4.44627 26.3907H9.28208V38.7665L4.44627 38.7687V26.3907ZM49.313 37.1011C49.0485 37.6107 48.5974 37.9815 48.0466 38.142L26.743 44.3918C25.8973 44.639 24.9952 44.5587 24.2036 44.1597L15.7854 39.9051C14.8356 39.4236 13.8056 39.107 12.7538 38.9314V26.3929H19.1358C20.3697 26.3929 21.5841 26.7225 22.6445 27.3471L31.2992 32.4214C31.8673 32.7554 32.2295 33.3235 32.2858 33.9806C32.2967 34.0934 32.2988 34.2061 32.2902 34.3167C32.2793 34.3775 32.2728 34.4403 32.2685 34.5032C32.1926 34.9608 31.9605 35.375 31.5941 35.6894C30.9869 36.2142 30.1238 36.3269 29.3995 35.9778L20.2963 31.567C19.4332 31.1463 18.3966 31.5107 17.9781 32.3715C17.5596 33.2346 17.9217 34.2712 18.7826 34.6897L27.8859 39.1005C29.8528 40.0525 32.1969 39.7468 33.8559 38.322C34.5498 37.7235 35.0746 36.9667 35.3955 36.1318L47.0863 34.0696C48.1012 33.8918 49.1117 34.4924 49.437 35.4683C49.6257 36.0104 49.5776 36.5914 49.313 37.1011Z" fill="#4537FF"/>
<path d="M37.4861 25.3739C43.8137 25.3739 48.589 22.6372 48.589 19.0047V6.45123C48.589 6.42737 48.5934 6.40352 48.5934 6.3775C48.5934 2.74086 43.8161 0 37.4777 0C31.1541 0 26.3859 2.7302 26.3637 6.35363C26.3637 6.36013 26.3594 6.36664 26.3594 6.37098V19.0005C26.3637 22.635 31.1475 25.3739 37.4861 25.3739ZM45.1194 12.6794C45.1194 13.1717 44.51 13.794 43.5016 14.3145C40.4917 15.9409 34.5194 15.956 31.4228 14.3014C30.4426 13.794 29.8311 13.1716 29.8311 12.6794L29.8333 11.0812C31.798 12.1286 34.4566 12.7574 37.4793 12.7574C40.4979 12.7574 43.1567 12.1286 45.1169 11.0855L45.1194 12.6794ZM37.4861 21.9042C32.7392 21.9042 29.8335 20.0263 29.8335 19.0049V17.385C31.8762 18.4714 34.5912 19.0699 37.4861 19.0699C40.4006 19.0699 43.1197 18.4671 45.1194 17.3872V19.0049C45.1194 20.0263 42.2222 21.9042 37.4861 21.9042ZM37.4818 3.47399C42.4065 3.47399 45.1 5.37797 45.1217 6.36679C45.1217 6.37113 45.1195 6.37113 45.1195 6.37546V6.39932C45.0892 7.39253 42.398 9.28779 37.4818 9.28779C32.5354 9.28779 29.8358 7.36649 29.8358 6.37978C29.8358 5.39312 32.5356 3.47399 37.4818 3.47399Z" fill="#4537FF"/>
</svg>
