<svg width="14" height="14" viewBox="0 0 14 14" fill="none" xmlns="http://www.w3.org/2000/svg">
<path fill-rule="evenodd" clip-rule="evenodd" d="M3.49967 4.08268C3.49967 3.11618 4.28318 2.33268 5.24967 2.33268C6.21617 2.33268 6.99967 3.11618 6.99967 4.08268C6.99967 5.04918 6.21617 5.83268 5.24967 5.83268C4.28318 5.83268 3.49967 5.04918 3.49967 4.08268ZM5.24967 1.16602C3.63884 1.16602 2.33301 2.47185 2.33301 4.08268C2.33301 5.69351 3.63884 6.99935 5.24967 6.99935C6.86051 6.99935 8.16634 5.69351 8.16634 4.08268C8.16634 2.47185 6.86051 1.16602 5.24967 1.16602ZM3.49967 8.16602C2.72613 8.16602 1.98426 8.47331 1.43728 9.02029C0.890299 9.56727 0.583008 10.3091 0.583008 11.0827V12.2493C0.583008 12.5715 0.844175 12.8327 1.16634 12.8327C1.48851 12.8327 1.74967 12.5715 1.74967 12.2493V11.0827C1.74967 10.6186 1.93405 10.1734 2.26224 9.84525C2.59043 9.51706 3.03555 9.33268 3.49967 9.33268H6.99968C7.4638 9.33268 7.90892 9.51706 8.23711 9.84525C8.5653 10.1734 8.74968 10.6186 8.74968 11.0827V12.2493C8.74968 12.5715 9.01084 12.8327 9.33301 12.8327C9.65518 12.8327 9.91634 12.5715 9.91634 12.2493V11.0827C9.91634 10.3091 9.60905 9.56727 9.06207 9.02029C8.51509 8.47331 7.77322 8.16602 6.99968 8.16602H3.49967ZM10.5182 8.67928C10.5987 8.36734 10.9169 8.17976 11.2288 8.2603C11.8546 8.42186 12.4089 8.78666 12.8048 9.29741C13.2008 9.80816 13.4159 10.4359 13.4163 11.0822L13.4163 11.0826V12.2493C13.4163 12.5714 13.1552 12.8326 12.833 12.8326C12.5108 12.8326 12.2497 12.5714 12.2497 12.2493V11.083V11.0829C12.2494 10.6952 12.1203 10.3186 11.8828 10.0122C11.6452 9.70574 11.3126 9.48686 10.9372 9.38992C10.6252 9.30938 10.4377 8.99122 10.5182 8.67928ZM9.4777 1.26001C9.1656 1.1801 8.84781 1.36833 8.7679 1.68042C8.68799 1.99252 8.87622 2.31031 9.18832 2.39022C9.56475 2.4866 9.8984 2.70552 10.1367 3.01248C10.3749 3.31943 10.5043 3.69696 10.5043 4.08553C10.5043 4.4741 10.3749 4.85163 10.1367 5.15858C9.8984 5.46554 9.56475 5.68446 9.18832 5.78084C8.87622 5.86075 8.68799 6.17854 8.7679 6.49064C8.84781 6.80274 9.1656 6.99096 9.4777 6.91105C10.1051 6.75042 10.6612 6.38554 11.0583 5.87395C11.4554 5.36236 11.6709 4.73316 11.6709 4.08553C11.6709 3.43791 11.4554 2.8087 11.0583 2.29711C10.6612 1.78552 10.1051 1.42065 9.4777 1.26001Z" fill="url(#paint0_linear_494_6937)"/>
<defs>
<linearGradient id="paint0_linear_494_6937" x1="1.90409" y1="4.34783" x2="9.40881" y2="15.9606" gradientUnits="userSpaceOnUse">
<stop stop-color="#007DFE"/>
<stop offset="1" stop-color="#04C7DB"/>
</linearGradient>
</defs>
</svg>
