<svg width="22" height="22" viewBox="0 0 22 22" fill="none" xmlns="http://www.w3.org/2000/svg">
<rect width="22" height="22" rx="11" fill="white"/>
<g clip-path="url(#clip0_314_4843)">
<path d="M10.4165 6.3335H6.33317C6.02375 6.3335 5.72701 6.45641 5.50821 6.6752C5.28942 6.894 5.1665 7.19074 5.1665 7.50016V15.6668C5.1665 15.9762 5.28942 16.273 5.50821 16.4918C5.72701 16.7106 6.02375 16.8335 6.33317 16.8335H14.4998C14.8093 16.8335 15.106 16.7106 15.3248 16.4918C15.5436 16.273 15.6665 15.9762 15.6665 15.6668V11.5835" stroke="#A4ABB2" stroke-width="1.16667" stroke-linecap="round" stroke-linejoin="round"/>
<path d="M14.7915 5.45863C15.0236 5.22656 15.3383 5.09619 15.6665 5.09619C15.9947 5.09619 16.3094 5.22656 16.5415 5.45863C16.7736 5.69069 16.9039 6.00544 16.9039 6.33363C16.9039 6.66182 16.7736 6.97656 16.5415 7.20863L10.9998 12.7503L8.6665 13.3336L9.24984 11.0003L14.7915 5.45863Z" stroke="#A4ABB2" stroke-width="1.16667" stroke-linecap="round" stroke-linejoin="round"/>
</g>
<defs>
<clipPath id="clip0_314_4843">
<rect width="14" height="14" fill="white" transform="translate(4 4)"/>
</clipPath>
</defs>
</svg>
