<svg width="16" height="16" viewBox="0 0 16 16" fill="none" xmlns="http://www.w3.org/2000/svg">
<g clip-path="url(#clip0_616_9381)">
<path d="M5.33301 9.3335C7.54215 9.3335 9.33301 7.54264 9.33301 5.3335C9.33301 3.12436 7.54215 1.3335 5.33301 1.3335C3.12387 1.3335 1.33301 3.12436 1.33301 5.3335C1.33301 7.54264 3.12387 9.3335 5.33301 9.3335Z" stroke="#256BD5" stroke-linecap="round" stroke-linejoin="round"/>
<path d="M12.0602 6.91357C12.6904 7.14853 13.2512 7.53859 13.6907 8.04771C14.1302 8.55682 14.4343 9.16854 14.5747 9.82629C14.7152 10.484 14.6875 11.1666 14.4943 11.8108C14.301 12.455 13.9485 13.0401 13.4692 13.512C12.9899 13.9838 12.3994 14.3272 11.7522 14.5104C11.1051 14.6936 10.4222 14.7106 9.76668 14.5599C9.1112 14.4092 8.5043 14.0956 8.00211 13.6482C7.49991 13.2008 7.11864 12.634 6.89355 12.0002" stroke="#256BD5" stroke-linecap="round" stroke-linejoin="round"/>
<path d="M4.66699 4H5.33366V6.66667" stroke="#256BD5" stroke-width="1.33333" stroke-linecap="round" stroke-linejoin="round"/>
<path d="M11.1399 9.25342L11.6066 9.72675L9.72656 11.6068" stroke="#256BD5" stroke-width="1.33333" stroke-linecap="round" stroke-linejoin="round"/>
</g>
<defs>
<clipPath id="clip0_616_9381">
<rect width="16" height="16" fill="white"/>
</clipPath>
</defs>
</svg>
