<svg width="14" height="14" viewBox="0 0 14 14" fill="none" xmlns="http://www.w3.org/2000/svg">
<path d="M4.6665 8.1665C6.5995 8.1665 8.1665 6.5995 8.1665 4.6665C8.1665 2.73351 6.5995 1.1665 4.6665 1.1665C2.73351 1.1665 1.1665 2.73351 1.1665 4.6665C1.1665 6.5995 2.73351 8.1665 4.6665 8.1665Z" stroke="#1C74F9" stroke-width="1.16667" stroke-linecap="round" stroke-linejoin="round"/>
<path d="M10.5526 6.04932C11.104 6.2549 11.5947 6.59621 11.9793 7.04168C12.3638 7.48716 12.6299 8.02241 12.7528 8.59794C12.8756 9.17347 12.8514 9.7707 12.6824 10.3344C12.5133 10.8981 12.2048 11.41 11.7854 11.8229C11.366 12.2358 10.8493 12.5363 10.2831 12.6965C9.7168 12.8568 9.11926 12.8717 8.54572 12.7398C7.97218 12.608 7.44114 12.3336 7.00172 11.9421C6.5623 11.5507 6.22869 11.0547 6.03174 10.5002" stroke="#1C74F9" stroke-width="1.16667" stroke-linecap="round" stroke-linejoin="round"/>
<path d="M4.0835 3.5H4.66683V5.83333" stroke="#1C74F9" stroke-width="1.16667" stroke-linecap="round" stroke-linejoin="round"/>
<path d="M9.74741 8.09668L10.1557 8.51085L8.51074 10.1558" stroke="#1C74F9" stroke-width="1.16667" stroke-linecap="round" stroke-linejoin="round"/>
</svg>
