<svg width="22" height="22" viewBox="0 0 22 22" fill="none" xmlns="http://www.w3.org/2000/svg">
<rect width="22" height="22" rx="11" fill="#A7CAFF"/>
<g clip-path="url(#clip0_622_5768)">
<path d="M13.5 6.50015C13.6313 6.36883 13.7872 6.26466 13.9588 6.19359C14.1304 6.12252 14.3143 6.08594 14.5 6.08594C14.6857 6.08594 14.8696 6.12252 15.0412 6.19359C15.2128 6.26466 15.3687 6.36883 15.5 6.50015C15.6313 6.63147 15.7355 6.78737 15.8066 6.95895C15.8776 7.13054 15.9142 7.31443 15.9142 7.50015C15.9142 7.68587 15.8776 7.86977 15.8066 8.04135C15.7355 8.21293 15.6313 8.36883 15.5 8.50015L8.75 15.2502L6 16.0002L6.75 13.2502L13.5 6.50015Z" stroke="white" stroke-linecap="round" stroke-linejoin="round"/>
</g>
<defs>
<clipPath id="clip0_622_5768">
<rect width="12" height="12" fill="white" transform="translate(5 5)"/>
</clipPath>
</defs>
</svg>
