<svg width="14" height="14" viewBox="0 0 14 14" fill="none" xmlns="http://www.w3.org/2000/svg">
<path d="M11.6668 7.00016V4.66683H3.50016C3.19074 4.66683 2.894 4.54391 2.6752 4.32512C2.45641 4.10633 2.3335 3.80958 2.3335 3.50016C2.3335 2.8585 2.8585 2.3335 3.50016 2.3335H10.5002V4.66683" stroke="#4537FF" stroke-width="1.16667" stroke-linecap="round" stroke-linejoin="round"/>
<path d="M2.3335 3.5V10.5C2.3335 11.1417 2.8585 11.6667 3.50016 11.6667H11.6668V9.33333" stroke="#4537FF" stroke-width="1.16667" stroke-linecap="round" stroke-linejoin="round"/>
<path d="M10.5002 7C10.1907 7 9.894 7.12292 9.67521 7.34171C9.45641 7.5605 9.3335 7.85725 9.3335 8.16667C9.3335 8.80833 9.8585 9.33333 10.5002 9.33333H12.8335V7H10.5002Z" stroke="#4537FF" stroke-width="1.16667" stroke-linecap="round" stroke-linejoin="round"/>
</svg>
