<svg width="390" height="92" viewBox="0 0 390 92" fill="none" xmlns="http://www.w3.org/2000/svg">
<g opacity="0.8">
<ellipse cx="229.5" cy="139.5" rx="229.5" ry="139.5" transform="matrix(-1 0 0 1 424 9.00049)" fill="url(#paint0_linear_245_2857)"/>
<path d="M305.797 19.0757L305.236 20.77" stroke="#E5F1FF" stroke-width="4.9" stroke-miterlimit="10" stroke-linecap="round"/>
<path d="M282.046 14.0293C282.105 13.8506 282.287 13.4946 281.855 13.4101C281.586 13.3576 281.216 13.2345 281.035 13.4301C281.034 13.2123 280.927 13.1428 280.74 13.0665C280.506 12.9703 280.231 12.8292 280.017 13.0514C279.923 12.603 279.188 12.4583 279.017 12.603C278.958 12.2476 278.519 12.0561 278.086 12.7584C278.051 12.8158 278.126 12.8675 278.165 12.8138C278.291 12.6422 278.457 12.4201 278.683 12.4415C279.011 12.4726 278.823 12.8917 278.782 13.0845C278.763 13.1779 278.916 13.2959 279.007 12.87C279.026 12.8639 279.041 12.8488 279.041 12.8244C279.229 12.639 279.168 12.6635 279.31 12.6934C280.176 12.9531 279.784 13.1748 279.77 13.5125C279.768 13.5647 279.824 13.5947 279.863 13.5588C280.04 13.3973 280.012 12.9922 280.435 13.1238C281.219 13.3685 280.735 13.6703 280.761 14.0545C280.767 14.1525 280.948 14.0719 281.014 13.6821C281.187 13.3825 281.348 13.5005 281.658 13.5558C282.251 13.6611 281.761 13.9047 281.747 14.4082C281.745 14.4854 281.832 14.512 281.876 14.451C281.967 14.3268 281.999 14.1742 282.046 14.0283L282.046 14.0293Z" fill="white"/>
<path d="M297.15 13.3742C297.15 13.3742 298.545 13.1121 299.324 12.9356C300.103 12.759 300.492 13.2757 300.511 13.6236C300.529 13.9712 298.884 14.2656 298.884 14.2656L297.15 13.3742Z" fill="#88B2F4"/>
<path d="M302.981 10.3987C302.945 10.5069 302.902 10.6086 302.851 10.7014C302.606 11.1578 302.214 11.4217 301.887 11.3135C301.56 11.2054 301.402 10.7593 301.478 10.2472C301.493 10.1419 301.518 10.0349 301.554 9.92663C301.764 9.2909 302.254 8.88161 302.648 9.01202C303.043 9.14242 303.191 9.76293 302.981 10.3987Z" fill="#D4E5FF"/>
<path d="M302.851 10.7031C302.607 11.1596 302.215 11.4234 301.888 11.3153C301.561 11.2071 301.402 10.7611 301.478 10.249C301.721 10.159 301.989 10.1462 302.246 10.2311C302.503 10.316 302.71 10.4851 302.851 10.7031Z" fill="#AECAF9"/>
<path d="M302.914 13.0519L301.855 12.7018L302.49 10.7822C302.567 10.5481 302.82 10.4206 303.055 10.4982L303.265 10.5679C303.499 10.6453 303.627 10.8977 303.549 11.1325L302.914 13.0522L302.914 13.0519Z" fill="#88B2F4"/>
<path d="M303.454 15.7768L300.712 14.8698C300.712 14.8698 301.875 13.2832 302.252 12.6741C302.423 12.3979 302.669 12.1905 302.954 12.2848L303.423 12.4399C303.708 12.5343 303.857 12.8619 303.755 13.1713L303.454 15.7768Z" fill="#88B2F4"/>
<path d="M302.72 15.5341L299.978 14.6271C299.978 14.6271 301.141 13.0405 301.518 12.4315C301.689 12.1552 301.935 11.9478 302.22 12.0421L302.689 12.1972C302.975 12.2916 303.124 12.6192 303.021 12.9287L302.72 15.5341Z" fill="#AECAF9"/>
<path d="M302.572 14.3058C302.572 14.3058 301.819 14.7516 300.682 14.1556C299.545 13.5596 297.076 12.792 297.962 12.2935C298.847 11.7951 300.724 12.7266 302.013 13.3305C303.302 13.9338 303.602 14.1638 303.602 14.1638L302.572 14.3058Z" fill="#CADDFE"/>
<path d="M303.96 17.635C303.656 17.5343 303.489 17.2033 303.59 16.899L303.938 15.8455C304.039 15.5412 304.37 15.3747 304.674 15.4754C304.979 15.576 305.145 15.907 305.045 16.2114L304.696 17.2648C304.596 17.5691 304.265 17.7356 303.96 17.635Z" fill="#AECAF9"/>
<path d="M304.968 18.3C304.664 18.1994 304.498 17.8684 304.598 17.564L304.947 16.5106C305.047 16.2063 305.378 16.0398 305.683 16.1404C305.987 16.2411 306.153 16.5721 306.053 16.8764L305.704 17.9299C305.604 18.2342 305.273 18.4007 304.968 18.3Z" fill="#AECAF9"/>
<path opacity="0.75" d="M301.608 15.0917L300.291 14.6535L299.766 14.48L298.735 14.1364L298.392 14.0232L297.534 13.737L297.275 13.6513L296.461 13.3806L296.211 13.2976L295.362 13.0155L295.166 12.9504L294.518 12.7346L293.949 12.5463C293.949 12.5463 294.261 12.1999 294.904 12.1747C294.963 12.1716 295.025 12.172 295.091 12.176C295.28 12.1862 295.464 12.1929 295.652 12.2039C295.799 12.2121 295.949 12.2234 296.104 12.2399C296.318 12.2625 296.543 12.298 296.788 12.3533C296.933 12.3858 297.087 12.4269 297.249 12.4764C297.451 12.5376 297.668 12.6148 297.902 12.7093C298.055 12.7713 298.216 12.8416 298.385 12.9204C298.549 12.9963 298.719 13.0802 298.899 13.1731C299.038 13.2451 299.183 13.323 299.334 13.4062C299.455 13.4739 299.581 13.5455 299.711 13.621C299.771 13.6562 299.829 13.6899 299.885 13.7232C300.106 13.854 300.302 13.9722 300.473 14.079C300.695 14.2174 300.877 14.3371 301.026 14.4398C301.96 15.0845 301.609 15.0902 301.609 15.0902L301.608 15.0917Z" fill="#2B3F5D"/>
<g opacity="0.2">
<path d="M295.652 12.2054C295.288 12.3985 294.85 12.6015 294.518 12.7361L294.257 12.6499C294.418 12.518 294.652 12.3464 294.903 12.1762C294.963 12.1731 295.025 12.1735 295.091 12.1774C295.279 12.1877 295.464 12.1944 295.652 12.2054Z" fill="#D4E5FF"/>
<path d="M297.901 12.711C297.772 12.7666 297.646 12.8198 297.531 12.8741C297.196 13.0314 296.829 13.2564 296.461 13.3823L296.21 13.2993C296.387 13.1095 296.798 12.7813 297.249 12.4784C297.451 12.5395 297.668 12.6167 297.902 12.7112L297.901 12.711Z" fill="#D4E5FF"/>
<path d="M299.885 13.7246C299.467 13.8964 299.04 14.0499 298.734 14.1379L298.392 14.0247C298.563 13.8647 298.918 13.6289 299.333 13.4084C299.455 13.4761 299.58 13.5477 299.71 13.6232C299.77 13.6583 299.828 13.6921 299.884 13.7253L299.885 13.7246Z" fill="#D4E5FF"/>
<path d="M301.026 14.4413C300.776 14.5227 300.521 14.5974 300.291 14.6545L299.767 14.481C299.941 14.3585 300.193 14.2144 300.473 14.0807C300.695 14.2191 300.878 14.3388 301.027 14.4415L301.026 14.4413Z" fill="#D4E5FF"/>
</g>
<path d="M281.827 15.7034L282.624 13.2928C282.624 13.2928 286.031 13.4293 287.707 14.0609C287.707 14.0609 288.782 13.9287 290.015 14.2908L290.35 13.2761C290.35 13.2761 289.804 12.8286 290.936 12.7962C292.067 12.7638 293.853 12.8332 293.853 12.8332L293.948 12.5464C293.948 12.5464 295.54 12.3499 298.158 13.3896C300.777 14.4292 301.608 15.092 301.608 15.092C301.608 15.092 303.021 13.6959 303.751 13.9081C304.481 14.1203 304.443 14.2352 304.045 14.7926C303.647 15.3494 303.345 16.2623 303.935 16.6601C304.524 17.0578 306.518 17.7922 306.655 18.1905C306.792 18.5888 307.075 19.7511 306.828 19.6126C306.58 19.4738 304.184 18.2472 304.016 18.1916C303.847 18.1359 304.109 19.1192 304.306 19.7338C304.503 20.3483 304.363 20.2868 305.147 20.7415C305.93 21.1971 305.979 20.8073 305.979 20.8073L307.119 21.3938C307.119 21.3938 307.346 22.5622 307.334 22.7603C307.322 22.9591 306.206 22.3002 306.014 22.2366C305.821 22.173 305.882 22.552 305.985 23.1297L306.088 23.7074L305.795 24.5941L281.827 15.7034Z" fill="white"/>
<path d="M303.163 19.3194C303.112 19.36 303.062 19.3947 303.009 19.4218C302.878 19.4882 302.729 19.5022 302.489 19.4228C302.343 19.3744 302.132 19.3048 301.9 19.2037C301.6 19.0736 301.265 18.8921 300.988 18.6366C300.497 18.1843 300.313 17.3697 299.887 17.3644C299.55 17.3601 299.136 17.2499 298.697 17.0826C298.396 16.9685 298.084 16.8282 297.778 16.6781C297.704 16.6424 297.633 16.6065 297.56 16.5697C297.366 16.4712 297.176 16.3703 296.993 16.2718C296.946 16.2456 296.891 16.2184 296.829 16.1881C296.602 16.0782 296.278 15.9404 295.891 15.7887C295.358 15.5807 294.703 15.3454 294.014 15.125C293.491 14.9576 292.949 14.7986 292.424 14.6648C292.021 14.5625 291.63 14.4745 291.267 14.4102C290.789 14.3246 290.36 14.2791 290.017 14.2906L290.352 13.2759C290.352 13.2759 290.665 13.0769 292.162 13.4232C292.439 13.4864 292.757 13.5688 293.121 13.6746C293.529 13.7933 293.995 13.9418 294.528 14.127C294.586 14.1463 294.645 14.1681 294.704 14.1885C295.371 14.4203 296.05 14.6636 296.716 14.9108C297.044 15.0314 297.368 15.1539 297.686 15.2762C297.891 15.3545 298.092 15.4332 298.292 15.5121C298.424 15.5649 298.556 15.6165 298.685 15.6689C298.934 15.7701 299.178 15.8702 299.413 15.9698C300.067 16.247 300.66 16.5178 301.155 16.7742C301.579 16.9922 301.933 17.2 302.192 17.3914C302.402 17.5461 302.551 17.6895 302.628 17.8197C303.158 18.718 303.346 19.1769 303.165 19.3201L303.163 19.3194Z" fill="#2B3F5D"/>
<path d="M296.145 19.8753C295.831 19.7457 295.525 19.6185 295.216 19.49C295.091 19.4382 294.965 19.3868 294.837 19.334C294.731 19.2899 294.622 19.2458 294.512 19.2012C294.242 19.09 293.962 18.9772 293.665 18.858C293.373 18.7412 293.066 18.6194 292.735 18.4895C292.689 18.4711 292.642 18.453 292.595 18.4343C292.39 18.3544 292.035 18.2124 291.577 18.0293C291.282 17.9116 290.946 17.7769 290.579 17.6296C290.244 17.4944 289.884 17.3501 289.507 17.1986C286.428 15.9588 282.296 14.2873 282.296 14.2873L282.437 13.86C282.437 13.86 283.688 13.6504 286.313 14.512C287.53 14.9111 289.095 15.4321 290.61 15.9794C290.946 16.101 291.279 16.2232 291.605 16.3465C292.02 16.5034 292.425 16.6616 292.809 16.8169C293.138 16.9501 293.451 17.0822 293.745 17.2126C294.103 17.3706 294.431 17.5253 294.718 17.6754C294.831 17.7341 294.939 17.7923 295.039 17.8491C295.216 17.9489 295.377 18.0477 295.527 18.145C295.609 18.1982 295.686 18.2514 295.76 18.3033C295.88 18.3876 295.99 18.4721 296.092 18.5545C297.024 19.3057 297.216 19.9212 297.28 20.1623C297.364 20.4748 297.245 20.3318 296.145 19.8745L296.145 19.8753Z" fill="#2B3F5D"/>
<path d="M302.348 20.5589L300.927 19.9982C300.728 19.9192 300.633 19.6775 300.717 19.4602C300.801 19.2429 301.032 19.1303 301.232 19.2085L302.652 19.7692C302.852 19.8482 302.947 20.0899 302.863 20.3072C302.779 20.5245 302.548 20.6372 302.348 20.5589Z" fill="#88B2F4"/>
<path d="M303.742 20.8718L303.288 20.6923C303.115 20.6237 303.032 20.4136 303.105 20.2251C303.178 20.0366 303.378 19.9382 303.552 20.007L304.006 20.1864C304.179 20.255 304.262 20.4651 304.189 20.6536C304.116 20.8421 303.916 20.9406 303.742 20.8718Z" fill="#617FB3"/>
<path d="M300.398 15.0843L300.149 15.002C300.028 14.9621 299.898 15.0276 299.858 15.1484L299.852 15.1667C299.812 15.2875 299.877 15.4178 299.998 15.4578L300.247 15.5401C300.368 15.58 300.498 15.5145 300.538 15.3937L300.544 15.3754C300.584 15.2546 300.519 15.1242 300.398 15.0843Z" fill="#617FB3"/>
<path d="M302.492 16.7615C302.366 16.7198 302.297 16.5826 302.339 16.4567L302.481 16.0273C302.523 15.9015 302.66 15.8325 302.786 15.8741C302.911 15.9157 302.98 16.0529 302.939 16.1788L302.797 16.6082C302.755 16.734 302.618 16.8031 302.492 16.7615Z" fill="#2B3F5D"/>
<path d="M306.162 22.0188C306.071 21.9888 306.021 21.8905 306.051 21.7997L306.154 21.4903C306.184 21.3996 306.282 21.3501 306.373 21.3801C306.464 21.4101 306.513 21.5084 306.483 21.5992L306.381 21.9086C306.351 21.9993 306.252 22.0488 306.162 22.0188Z" fill="#617FB3"/>
<path d="M302.799 19.977C302.205 19.7218 301.578 19.5218 300.968 19.3025C300.922 19.2855 300.901 19.3548 300.945 19.3742C301.537 19.6311 302.145 19.8984 302.764 20.0846C302.835 20.1056 302.866 20.0054 302.799 19.977Z" fill="#617FB3"/>
<path d="M302.793 20.2243C302.48 20.0827 302.134 20.0063 301.812 19.8845C301.489 19.7629 301.171 19.6263 300.853 19.491C300.82 19.4767 300.793 19.5311 300.825 19.5484C301.411 19.8694 302.112 20.2149 302.778 20.3077C302.83 20.3151 302.834 20.242 302.793 20.2236L302.793 20.2243Z" fill="#617FB3"/>
<path d="M302.55 20.4224C301.976 20.2001 301.398 19.9521 300.82 19.7447C300.793 19.736 300.776 19.7726 300.799 19.7881C301.281 20.1303 301.947 20.3885 302.522 20.5097C302.579 20.522 302.607 20.4444 302.551 20.4226L302.55 20.4224Z" fill="#617FB3"/>
<path opacity="0.3" d="M302.846 16.3404C302.995 15.7502 302.586 15.9444 302.744 16.0081C302.873 16.0594 302.687 16.576 302.562 16.566C302.341 16.5492 302.668 17.0499 302.846 16.3404Z" fill="#617FB3"/>
<path opacity="0.2" d="M300.091 15.0614C299.939 15.1229 300.426 15.1079 300.343 15.3922C300.317 15.4848 300.456 15.5147 300.475 15.417C300.513 15.2129 300.3 14.9778 300.091 15.0614Z" fill="#D4E5FF"/>
<path opacity="0.2" d="M303.434 20.1214C303.388 20.12 303.387 20.1846 303.43 20.1915C304.256 20.3265 303.652 20.8012 303.9 20.7721C304.068 20.7522 304.255 20.1428 303.433 20.1219L303.434 20.1214Z" fill="#D4E5FF"/>
<path opacity="0.2" d="M306.468 21.7477C306.491 21.635 306.477 21.524 306.429 21.4198C306.41 21.3787 306.339 21.4022 306.354 21.4468C306.445 21.7221 306.275 21.8388 306.226 21.9368C306.165 22.0578 306.399 22.0924 306.469 21.7479L306.468 21.7477Z" fill="#D4E5FF"/>
<path d="M299.633 15.6724L304.509 18.1485" stroke="#2B3F5D" stroke-width="1.96" stroke-linecap="round" stroke-linejoin="round"/>
<path d="M292.001 15.9531L299.902 19.4572" stroke="#2B3F5D" stroke-width="1.96" stroke-linecap="round" stroke-linejoin="round"/>
<path d="M289.545 15.9256C289.823 14.827 288.577 14.7914 288.267 15.171C288.291 14.8737 288.16 14.7883 287.857 14.6345C287.464 14.4349 287.039 14.2317 286.781 14.6563C286.785 14.099 285.548 13.8556 285.471 13.8796C285.342 13.9196 285.312 14.0065 285.315 13.9789C285.374 13.3777 284.357 13.6264 283.872 13.8929C283.475 14.1107 283.352 14.4277 283.273 14.8748C283.264 14.9301 283.345 14.9416 283.361 14.8902C283.427 14.6856 283.504 14.5088 283.612 14.3611C284.902 15.0988 285.054 14.5046 284.628 15.4837C284.577 15.603 284.754 15.6618 284.806 15.5425C284.886 15.3557 284.973 15.1554 285.053 14.9491C285.468 15.1033 285.884 15.2571 286.299 15.4098C286.443 15.4624 286.336 15.4156 286.177 16.0826C286.153 16.1819 286.277 16.2245 286.316 16.1289C286.402 15.9225 286.467 15.7087 286.533 15.4953C286.985 15.6602 287.438 15.8246 287.891 15.9872C287.822 16.2145 287.742 16.4379 287.655 16.6591C287.605 16.784 287.789 16.8447 287.838 16.7196C287.923 16.4993 287.998 16.276 288.065 16.0499C288.412 16.1744 288.759 16.2978 289.106 16.4208C289.014 16.5998 288.921 16.7777 288.851 16.9662C288.814 17.0638 288.947 17.1295 289.002 17.0421C289.148 16.8064 289.348 16.5308 289.47 16.1575C289.487 16.1241 289.515 16.027 289.544 15.9271L289.545 15.9256ZM289.364 15.8156C289.03 15.6303 288.649 15.5059 288.297 15.3669C288.55 15.0252 289.541 15.0114 289.364 15.8156ZM288.064 15.0626C288.178 15.4062 288.095 15.2667 286.838 14.8023C287.086 14.4331 287.952 14.7237 288.064 15.0626ZM288.047 15.474C288.018 15.5927 287.978 15.7117 287.944 15.8158C287.491 15.6531 287.039 15.4897 286.587 15.3241C286.741 14.8489 286.644 14.9061 288.046 15.4737L288.047 15.474ZM285.896 14.154C286.227 14.2716 286.642 14.3228 286.603 14.7166C286.092 14.5305 285.726 14.4046 285.315 14.2669C285.44 14.0364 285.656 14.069 285.896 14.154ZM284.889 13.803C285.144 13.7934 285.148 13.9837 285.095 14.1919C284.793 14.0896 284.481 13.9887 284.166 13.956C284.399 13.8634 284.645 13.8116 284.889 13.8033L284.889 13.803ZM283.674 14.2835C284.006 13.9031 283.971 14.062 285.029 14.4053C284.974 14.5633 284.994 14.5123 284.928 14.7103C284.519 14.5524 284.1 14.3751 283.674 14.2827L283.674 14.2835ZM285.116 14.7823C285.153 14.6769 285.188 14.5716 285.218 14.4662C285.668 14.6094 286.121 14.747 286.563 14.9046C286.557 14.9229 286.44 15.2714 286.424 15.2651C285.987 15.1053 285.552 14.9443 285.117 14.7825L285.116 14.7823ZM288.116 15.8768C288.147 15.7651 288.175 15.652 288.2 15.5387C288.561 15.6962 288.929 15.8866 289.303 16.0039C289.268 16.0905 289.229 16.1749 289.188 16.2581C288.831 16.1317 288.473 16.0039 288.116 15.8761L288.116 15.8768Z" fill="#D4E5FF"/>
<path d="M307.099 27.1071C307.099 27.1071 307.421 25.9711 307.335 25.1034C307.248 24.2356 307.415 24.3775 306.751 24.0428C306.088 23.7074 305.279 23.4113 305.279 23.4113C305.279 23.4113 298.184 20.8045 297.227 20.5172C296.27 20.23 284.624 15.1276 282.295 14.2885C279.967 13.4494 273.056 10.8636 272.633 10.9316C272.211 10.9996 272.896 11.5094 273.821 13.5545C274.746 15.5996 276.766 20.4631 276.905 20.7695C277.044 21.076 279.446 21.639 283.952 22.7819C288.458 23.9246 297.912 26.01 300.763 26.6632C303.614 27.3173 305.928 27.8221 306.638 27.854C307.349 27.886 308.096 27.3206 307.099 27.1078L307.099 27.1071Z" fill="#AECAF9"/>
<path d="M307.046 27.8107C306.918 27.8436 306.778 27.8598 306.638 27.8536C305.929 27.8211 303.614 27.3158 300.763 26.6627C297.911 26.0086 288.458 23.9234 283.952 22.7807C279.447 21.6371 277.044 21.0748 276.906 20.7683C276.828 20.5965 276.161 18.9986 275.427 17.2659C275.427 17.2659 276.285 17.1877 276.554 18.2026C276.823 19.2168 277.06 19.6817 277.06 19.6817C277.06 19.6817 289.712 23.2328 293.011 23.9853C296.311 24.7375 305.85 27.2592 305.85 27.2592C305.85 27.2592 306.137 27.6903 307.047 27.8117L307.046 27.8107Z" fill="#2B3F5D"/>
<path d="M307.046 27.8101C306.137 27.6887 305.849 27.2576 305.849 27.2576C305.849 27.2576 296.311 24.7359 293.01 23.9837C289.711 23.231 277.06 19.6801 277.06 19.6801C277.06 19.6801 276.822 19.216 276.554 18.201C276.284 17.1868 275.427 17.2644 275.427 17.2644C274.848 15.9002 274.228 14.4536 273.821 13.552C273.615 13.0949 273.42 12.714 273.246 12.3977C273.246 12.3977 276.506 13.1958 284.6 16.4633C292.694 19.7318 297.526 21.274 298.783 21.9908C299.177 22.215 299.463 22.3528 299.628 22.426C299.72 22.4669 299.764 22.5772 299.73 22.6804C299.692 22.7952 299.573 22.8567 299.47 22.816C298.615 22.479 295.164 21.1365 294.862 21.3041C294.516 21.4957 293.648 22.0553 294.502 22.392C296.716 23.2664 300.904 24.5092 302.716 25.1085C304.528 25.7078 307.281 26.2362 307.281 26.2362C307.207 26.7247 307.1 27.1045 307.1 27.1045C307.901 27.2754 307.575 27.6741 307.047 27.8071L307.046 27.8101Z" fill="#88B2F4"/>
<path d="M304.989 23.8064C304.937 23.8085 304.877 23.7991 304.808 23.7766L304.783 23.7681C304.705 23.7425 304.554 23.6956 304.35 23.6315C304.315 23.6199 304.278 23.6078 304.239 23.5964C304.22 23.5901 304.199 23.5831 304.179 23.5766C304.024 23.5267 303.846 23.4714 303.655 23.4097C303.6 23.3915 303.542 23.3741 303.484 23.3557C303.42 23.3345 303.353 23.3124 303.286 23.2919C303.146 23.2471 303.002 23.2009 302.854 23.153C302.797 23.1342 302.739 23.1151 302.682 23.0959C302.488 23.0335 302.291 22.9692 302.095 22.9043L301.933 22.8509C301.667 22.7628 301.407 22.6742 301.163 22.5898C301.113 22.5731 301.064 22.5554 301.017 22.538C300.817 22.468 300.632 22.4019 300.469 22.3399C300.364 22.3002 300.268 22.2651 300.178 22.2332C300.118 22.2109 300.062 22.1906 300.009 22.1724C299.727 22.0724 299.541 22.0085 299.411 21.9477C299.357 21.9225 299.312 21.8972 299.275 21.8703C299.137 21.7695 299.096 21.6414 299.009 21.3577C299.006 21.3495 299.004 21.3414 299.001 21.3332C298.989 21.2935 298.976 21.2535 298.963 21.2129C298.642 20.1832 298.231 19.0301 299.185 19.4845C300.105 19.9227 303.05 20.9754 303.912 21.4015C303.979 21.4343 304.033 21.4636 304.073 21.4889C304.284 21.6204 304.507 21.8931 304.703 22.194C305.021 22.6813 305.267 23.2441 305.278 23.4093C305.293 23.622 305.198 23.7983 304.989 23.8047L304.989 23.8064Z" fill="#2B3F5D"/>
<path d="M304.703 22.1965L304.235 23.6128L303.285 23.2988L303.912 21.4033C303.979 21.4361 304.033 21.4661 304.073 21.4907C304.284 21.623 304.507 21.8949 304.703 22.1965Z" fill="#B0CCFD"/>
<path d="M304.989 23.806C304.937 23.8081 304.877 23.7987 304.809 23.7762L304.783 23.7678C304.844 23.6499 304.914 23.5377 304.885 23.3933C304.84 23.1682 304.626 23.215 304.466 23.2831C304.431 23.4314 304.39 23.546 304.351 23.6314C304.316 23.6197 304.279 23.6077 304.24 23.5963C304.221 23.59 304.2 23.583 304.18 23.5765C304.246 23.4165 304.351 23.2547 304.317 23.0959C304.276 22.9037 304.04 22.7834 303.787 23.0335C303.744 23.2059 303.699 23.3264 303.656 23.4098C303.602 23.3917 303.544 23.3742 303.486 23.3559C303.578 23.1649 303.712 22.8634 303.579 22.7504C303.417 22.6124 303.163 22.7321 302.986 22.8051C302.94 22.9636 302.897 23.0758 302.856 23.1532C302.799 23.1343 302.741 23.1152 302.683 23.0961C302.767 22.8868 302.943 22.5879 302.819 22.4349C302.675 22.2566 302.379 22.3307 302.243 22.4935C302.23 22.5096 302.196 22.6905 302.097 22.9045L301.935 22.851C302.034 22.4626 302.244 22.2065 301.972 22.0721C301.756 21.9657 301.533 22.0232 301.334 22.1482C301.301 22.2916 301.237 22.4537 301.166 22.5901C301.115 22.5734 301.067 22.5558 301.019 22.5383C301.116 22.2954 301.292 21.9787 301.113 21.8237C300.885 21.6256 300.463 21.6736 300.291 21.9453C300.267 22.0671 300.225 22.163 300.18 22.2343C300.12 22.212 300.064 22.1916 300.011 22.1735C300.079 22.0223 300.173 21.8909 300.153 21.7048C300.135 21.5382 300.009 21.4413 299.854 21.4397C299.739 21.4383 299.648 21.4982 299.549 21.5474C299.497 21.7339 299.451 21.8624 299.413 21.9488C299.359 21.9236 299.314 21.8983 299.277 21.8714C299.347 21.6536 299.477 21.4343 299.391 21.3124C299.274 21.1479 299.129 21.2258 299.011 21.3588C299.008 21.3506 299.006 21.3425 299.003 21.3342C298.991 21.2946 298.978 21.2546 298.965 21.214C299.238 20.9429 299.564 21.1205 299.571 21.3963C299.876 21.1816 300.299 21.2971 300.309 21.7486C300.648 21.3988 301.364 21.5529 301.355 21.9995C301.718 21.7275 302.342 21.8771 302.283 22.2853C302.582 22.039 303.12 22.2229 303.027 22.6467C303.015 22.7042 303.325 22.366 303.68 22.5954C303.772 22.6551 303.809 22.7435 303.813 22.8439C304.085 22.6198 304.487 22.7892 304.488 23.1444C304.973 22.8485 305.192 23.4103 304.992 23.806L304.989 23.806Z" fill="#E5F1FF"/>
<path d="M294.999 21.9089C294.999 21.9089 303.162 24.638 306.919 25.5799" stroke="#2B3F5D" stroke-width="2.94" stroke-linecap="round" stroke-linejoin="round"/>
<path d="M280.256 20.16L278.43 19.5561C278.216 19.4852 278.137 19.2098 278.273 19.0082L280.122 16.2638C280.211 16.1318 280.368 16.0732 280.508 16.1196L282.278 16.7049C282.49 16.7751 282.57 17.0451 282.44 17.2469L280.647 20.0099C280.559 20.1456 280.399 20.2071 280.256 20.16Z" fill="#2B3F5D"/>
<path d="M277.22 20.0591C286.402 22.7795 296.138 25.1089 305.47 27.3628C304.874 27.2411 304.279 27.118 303.684 26.992C294.768 25.0853 285.879 22.9271 277.22 20.0594L277.22 20.0591Z" fill="#617FB3"/>
<path d="M304.763 10.7402C304.728 10.8485 304.684 10.9502 304.633 11.0422C304.389 11.4987 303.997 11.7625 303.669 11.6541C303.341 11.5457 303.184 11.1002 303.26 10.5881C303.275 10.4835 303.3 10.3765 303.336 10.2682C303.546 9.63245 304.037 9.22243 304.43 9.35259C304.824 9.48276 304.974 10.1045 304.763 10.7402Z" fill="#D4E5FF"/>
<path d="M304.634 11.043C304.389 11.4994 303.997 11.7633 303.669 11.6549C303.342 11.5465 303.185 11.1009 303.261 10.5888C303.503 10.4986 303.771 10.4858 304.028 10.5707C304.285 10.6556 304.492 10.825 304.634 11.043Z" fill="#AECAF9"/>
<path d="M291.352 14.6035C291.368 14.5682 291.384 14.5338 291.398 14.4979C291.419 14.4479 291.424 14.4311 291.453 14.344C291.774 13.3382 290.983 13.148 289.898 13.1601C289.8 13.161 289.661 13.1506 289.557 13.1911C289.568 13.0558 289.52 12.9726 289.338 12.9141C288.945 12.7883 288.16 12.6517 287.855 13.0786C287.837 12.8331 287.725 12.6267 287.435 12.5126C287.164 12.407 286.129 12.1465 285.842 12.5054C285.807 11.8941 284.205 12.0314 284.086 12.4893C284.101 12.0319 283.672 11.9199 283.149 12.6577C282.752 13.2186 282.777 13.6115 282.823 13.5495C283.254 12.9674 282.729 13.0634 283.674 13.3224C283.59 13.5548 283.743 13.6324 283.847 13.3673C285.352 13.7361 285.478 13.5837 285.41 13.7666C285.368 13.8815 285.534 13.9367 285.577 13.8218C285.641 13.6506 285.588 13.7506 287.496 14.0164C287.475 14.0876 287.455 14.158 287.436 14.2295C287.404 14.3433 287.566 14.3975 287.597 14.2827C287.617 14.2059 287.642 14.124 287.668 14.0408C288.131 14.1048 288.594 14.1685 289.054 14.2444C288.998 14.3817 288.939 14.5181 288.877 14.6525C288.826 14.763 288.993 14.8177 289.044 14.7077C289.109 14.5645 289.17 14.4201 289.228 14.2737C289.854 14.3824 290.472 14.5196 291.077 14.7197C291.024 14.9172 291.143 15.0278 291.269 14.7789C291.289 14.7289 291.319 14.6599 291.351 14.6026L291.352 14.6035ZM290.931 13.5034C291.518 13.7389 291.31 14.0668 291.245 14.2451C289.461 13.5156 289.423 13.7667 289.518 13.3939C289.579 13.1559 290.781 13.4441 290.931 13.5041L290.931 13.5034ZM288.57 12.9814C289.41 13.0255 289.513 13.0345 289.317 13.5718C288.85 13.4337 288.379 13.3111 287.905 13.2006C288.072 12.9928 288.319 12.9684 288.57 12.9814ZM285.841 12.7186C285.985 12.3822 287.694 12.3777 287.693 13.1516C285.816 12.7289 285.784 12.8537 285.841 12.7186ZM284.809 12.3017C285.273 12.2548 285.672 12.2655 285.67 12.7609C285.631 12.7547 284.233 12.5257 284.16 12.5181C284.268 12.3215 284.633 12.3196 284.809 12.3017ZM283.472 12.537C283.588 12.4132 283.586 12.3947 283.764 12.4462C283.825 12.4641 283.864 12.4808 283.886 12.4995C283.531 12.4957 283.439 12.5717 283.472 12.537ZM283.117 13.0138C283.302 12.7114 283.299 12.6332 283.889 12.6564C283.688 13.2807 283.948 13.0859 283.117 13.0138ZM283.931 13.1476C283.984 13.001 284.037 12.8296 284.066 12.6694C284.41 12.703 284.448 12.735 285.656 12.9388C285.629 13.1231 285.569 13.3226 285.51 13.4937C284.552 13.3164 284.618 13.2999 283.93 13.1473L283.931 13.1476ZM285.677 13.5245C285.732 13.3407 285.777 13.1534 285.806 12.9643C286.627 13.1051 287.174 13.2194 287.675 13.3332C287.652 13.4612 287.605 13.6353 287.553 13.8179C286.926 13.7331 286.372 13.6503 285.677 13.5245ZM287.73 13.8413C287.776 13.6846 287.818 13.5241 287.842 13.3703C288.315 13.4808 288.786 13.6047 289.252 13.7425C289.167 13.9508 289.208 13.8449 289.134 14.0444C288.668 13.9675 288.199 13.9048 287.73 13.8413ZM289.305 14.0735C289.34 13.9786 289.373 13.8833 289.404 13.7879C290.005 13.9705 290.598 14.1796 291.18 14.4185C291.099 14.6319 291.184 14.3988 289.305 14.0735Z" fill="white"/>
<path d="M304.244 14.3483C304.045 14.1592 303.66 14.1211 303.396 14.1598C303.339 14.1684 303.336 14.2622 303.388 14.277C303.522 14.3166 303.66 14.3436 303.793 14.3891C303.918 14.4319 304.033 14.5026 304.165 14.5169C304.241 14.525 304.302 14.4042 304.244 14.3483Z" fill="white"/>
<path d="M303.653 15.3322C303.405 14.9337 302.99 14.8316 302.56 14.9171C301.879 15.0515 301.303 15.0906 300.686 14.7405C300.543 14.6592 300.394 14.8932 300.538 14.9723C300.985 15.2183 301.474 15.3388 301.99 15.2862C302.236 15.2605 302.472 15.1712 302.716 15.1351C303.079 15.0816 303.3 15.2675 303.602 15.412C303.648 15.4338 303.673 15.3658 303.653 15.3322Z" fill="white"/>
<path opacity="0.2" d="M302.316 9.24099C302.08 9.21157 301.854 9.48501 301.732 9.6795C301.606 9.88277 301.528 10.1466 301.611 10.373C301.624 10.4073 301.677 10.4101 301.694 10.3762C301.789 10.1991 301.852 10.0104 301.97 9.84561C302.092 9.67573 302.29 9.60338 302.402 9.43279C302.459 9.34762 302.4 9.25176 302.316 9.24099Z" fill="white"/>
<path opacity="0.2" d="M304.443 9.5255C304.298 9.26464 303.962 9.39481 303.79 9.58528C303.6 9.79357 303.398 10.2356 303.468 10.5161C303.478 10.5541 303.521 10.5732 303.552 10.5437C303.703 10.3988 303.754 10.1626 303.855 9.98108C303.907 9.88861 303.97 9.79343 304.06 9.73864C304.157 9.67896 304.268 9.69624 304.373 9.67504C304.431 9.66345 304.474 9.58026 304.443 9.52526L304.443 9.5255Z" fill="white"/>
<path d="M298.151 15.1553C297.671 14.847 297.066 14.7064 296.535 14.5103C295.962 14.2989 295.389 14.0836 294.815 13.8781C293.778 13.5067 292.616 13.065 291.486 13.1498C291.457 13.1523 291.44 13.2028 291.475 13.2093C292.052 13.3176 292.633 13.3886 293.202 13.5395C293.752 13.6857 294.29 13.8718 294.824 14.0679C295.376 14.2708 295.926 14.481 296.476 14.688C297.006 14.8876 297.555 15.1757 298.118 15.2563C298.169 15.2635 298.192 15.1811 298.151 15.1553Z" fill="white"/>
<path opacity="0.2" d="M297.509 20.8432C296.001 20.0834 294.432 19.4418 292.884 18.7742C291.301 18.0905 289.709 17.423 288.112 16.7708C284.919 15.4662 281.7 14.224 278.459 13.045C276.62 12.3758 274.777 11.6399 272.881 11.1507C272.81 11.1321 272.776 11.2384 272.842 11.267C274.428 11.9431 276.084 12.4543 277.704 13.0419C279.325 13.6299 280.94 14.2341 282.55 14.8541C285.747 16.0851 288.92 17.3781 292.069 18.7325C293.851 19.4988 295.604 20.3441 297.399 21.075C297.522 21.1244 297.63 20.9053 297.509 20.8442L297.509 20.8432Z" fill="white"/>
<path opacity="0.2" d="M307.028 25.4434C306.805 25.2855 306.529 25.2323 306.274 25.1486C305.978 25.0516 305.681 24.9551 305.385 24.858C304.838 24.6788 304.292 24.5005 303.745 24.3212C302.605 23.9484 301.467 23.5758 300.327 23.203C299.188 22.8302 298.049 22.4577 296.909 22.0849C296.369 21.9078 295.823 21.6754 295.267 21.5524C295.049 21.5047 294.748 21.491 294.681 21.7797C294.666 21.8431 294.743 21.8926 294.781 21.8299C294.94 21.5724 295.41 21.8389 295.606 21.903C295.856 21.985 296.107 22.0663 296.358 22.1485L297.862 22.6394C298.887 22.9745 299.913 23.3095 300.938 23.6446L305.45 25.1181C305.927 25.2742 306.48 25.564 306.985 25.5714C307.05 25.5724 307.081 25.4798 307.028 25.4419L307.028 25.4434Z" fill="white"/>
<path d="M277.74 15.6855L276.686 15.3371C276.637 15.3209 276.63 15.2503 276.674 15.2185L276.841 15.0963C276.858 15.0845 276.878 15.0808 276.896 15.0869L277.95 15.4353C277.999 15.4515 278.006 15.5221 277.963 15.5539L277.795 15.6761C277.779 15.6879 277.758 15.6916 277.74 15.6855Z" fill="#2B3F5D"/>
<path d="M279.247 16.1845L278.193 15.8361C278.144 15.8199 278.137 15.7493 278.181 15.7175L278.348 15.5953C278.364 15.5835 278.385 15.5798 278.403 15.5859L279.457 15.9343C279.506 15.9505 279.513 16.0211 279.47 16.0529L279.302 16.1752C279.286 16.1869 279.265 16.1906 279.247 16.1845Z" fill="#2B3F5D"/>
<path d="M283.946 17.7383L282.892 17.3899C282.843 17.3736 282.836 17.303 282.88 17.2712L283.047 17.149C283.063 17.1373 283.084 17.1336 283.102 17.1396L284.156 17.488C284.205 17.5042 284.212 17.5749 284.169 17.6066L284.001 17.7289C283.985 17.7406 283.964 17.7443 283.946 17.7383Z" fill="#2B3F5D"/>
<path d="M285.453 18.2378L284.4 17.8894C284.351 17.8732 284.343 17.8025 284.387 17.7707L284.555 17.6485C284.571 17.6368 284.592 17.6331 284.61 17.6391L285.663 17.9875C285.712 18.0037 285.72 18.0744 285.676 18.1061L285.508 18.2284C285.492 18.2401 285.472 18.2438 285.453 18.2378Z" fill="#2B3F5D"/>
<path d="M306.456 24.9397C306.365 24.9097 306.316 24.8114 306.346 24.7206L306.448 24.4112C306.478 24.3205 306.576 24.271 306.667 24.301C306.758 24.331 306.807 24.4293 306.777 24.5201L306.675 24.8295C306.645 24.9202 306.546 24.9697 306.456 24.9397Z" fill="#2B3F5D"/>
<path d="M286.047 19.5449C285.993 19.708 285.827 19.8 285.676 19.7502C285.526 19.7004 285.447 19.5275 285.501 19.3644C285.555 19.2013 285.721 19.1093 285.872 19.1591C286.022 19.2089 286.101 19.3818 286.047 19.5449Z" fill="#2B3F5D"/>
<path d="M287.847 20.1406C287.793 20.3037 287.627 20.3957 287.477 20.3459C287.326 20.2961 287.247 20.1232 287.301 19.9601C287.355 19.797 287.521 19.705 287.672 19.7548C287.823 19.8046 287.901 19.9775 287.847 20.1406Z" fill="#2B3F5D"/>
<path d="M290.28 20.9453C290.226 21.1084 290.06 21.2004 289.909 21.1506C289.759 21.1007 289.68 20.9279 289.734 20.7648C289.788 20.6017 289.954 20.5096 290.105 20.5595C290.255 20.6093 290.334 20.7821 290.28 20.9453Z" fill="#2B3F5D"/>
<path d="M291.068 21.8173C290.987 21.7556 290.97 21.6325 291.032 21.5425L291.566 20.7654C291.627 20.6753 291.744 20.6524 291.825 20.7141C291.906 20.7758 291.922 20.8988 291.861 20.9889L291.327 21.766C291.266 21.856 291.149 21.879 291.068 21.8173Z" fill="#2B3F5D"/>
<path d="M291.669 22.016C291.588 21.9543 291.572 21.8313 291.633 21.7412L292.167 20.9641C292.228 20.8741 292.346 20.8511 292.427 20.9128C292.508 20.9745 292.524 21.0975 292.462 21.1876L291.929 21.9647C291.867 22.0547 291.75 22.0777 291.669 22.016Z" fill="#2B3F5D"/>
<path d="M292.27 22.2152C292.189 22.1535 292.173 22.0305 292.235 21.9404L292.768 21.1633C292.83 21.0733 292.947 21.0504 293.028 21.1121C293.109 21.1738 293.125 21.2968 293.064 21.3868L292.53 22.1639C292.469 22.254 292.351 22.2769 292.27 22.2152Z" fill="#2B3F5D"/>
<path d="M293.311 23.384C293.224 23.3318 293.197 23.2107 293.25 23.1156L293.714 22.2909C293.767 22.1957 293.882 22.1606 293.969 22.2138C294.055 22.266 294.083 22.387 294.029 22.4822L293.566 23.3068C293.512 23.402 293.398 23.4371 293.311 23.384Z" fill="#2B3F5D"/>
<path d="M294.899 23.8999C294.806 23.8602 294.765 23.7443 294.807 23.6438L295.171 22.7677C295.214 22.6665 295.324 22.6168 295.417 22.6565C295.51 22.6962 295.551 22.8121 295.509 22.9126L295.145 23.7887C295.102 23.8899 294.992 23.9397 294.899 23.8999Z" fill="#2B3F5D"/>
<path d="M295.41 24.0689C295.317 24.0291 295.276 23.9132 295.318 23.8128L295.682 22.9367C295.725 22.8354 295.834 22.7857 295.928 22.8254C296.021 22.8652 296.062 22.9811 296.02 23.0816L295.655 23.9577C295.613 24.0589 295.503 24.1086 295.41 24.0689Z" fill="#2B3F5D"/>
<path d="M298.524 24.9866C298.45 24.9622 298.41 24.8814 298.434 24.8075L298.768 23.7972C298.793 23.7233 298.873 23.6827 298.947 23.7071C299.021 23.7316 299.062 23.8124 299.037 23.8862L298.703 24.8965C298.679 24.9704 298.598 25.0111 298.524 24.9866Z" fill="#2B3F5D"/>
<path d="M298.946 25.1258C298.872 25.1013 298.832 25.0205 298.856 24.9467L299.19 23.9364C299.215 23.8625 299.295 23.8218 299.369 23.8463C299.443 23.8707 299.484 23.9515 299.459 24.0254L299.125 25.0357C299.101 25.1096 299.02 25.1502 298.946 25.1258Z" fill="#2B3F5D"/>
<path d="M299.369 25.2659C299.295 25.2415 299.255 25.1607 299.279 25.0868L299.613 24.0765C299.638 24.0026 299.718 23.962 299.792 23.9864C299.866 24.0108 299.907 24.0916 299.882 24.1655L299.548 25.1758C299.524 25.2497 299.443 25.2904 299.369 25.2659Z" fill="#2B3F5D"/>
<path d="M300.35 25.5901C300.276 25.5657 300.236 25.4849 300.26 25.411L300.594 24.4007C300.619 24.3268 300.699 24.2862 300.773 24.3106C300.847 24.3351 300.888 24.4159 300.863 24.4898L300.529 25.5C300.505 25.5739 300.424 25.6146 300.35 25.5901Z" fill="#2B3F5D"/>
<path d="M302.007 26.0156C301.956 25.9987 301.928 25.9432 301.945 25.892L302.022 25.6608C302.038 25.6096 302.094 25.5817 302.145 25.5986C302.196 25.6155 302.224 25.671 302.207 25.7222L302.131 25.9534C302.114 26.0046 302.058 26.0325 302.007 26.0156Z" fill="#2B3F5D"/>
<path d="M306.126 24.8363L305.935 24.7734C305.882 24.7556 305.824 24.7848 305.806 24.8385L305.803 24.8458C305.786 24.8996 305.815 24.9575 305.869 24.9753L306.059 25.0382C306.112 25.056 306.17 25.0268 306.188 24.9731L306.191 24.9658C306.208 24.912 306.179 24.8541 306.126 24.8363Z" fill="#2B3F5D"/>
<path d="M305.632 24.6742L305.442 24.6113C305.389 24.5935 305.331 24.6227 305.313 24.6764L305.31 24.6837C305.293 24.7375 305.322 24.7954 305.375 24.8132L305.566 24.8761C305.619 24.8939 305.677 24.8647 305.695 24.811L305.698 24.8037C305.715 24.7499 305.686 24.692 305.632 24.6742Z" fill="#2B3F5D"/>
<path d="M304.645 24.3475L304.455 24.2846C304.401 24.2668 304.343 24.296 304.326 24.3497L304.323 24.3571C304.305 24.4108 304.335 24.4688 304.388 24.4865L304.579 24.5494C304.632 24.5672 304.69 24.5381 304.708 24.4843L304.71 24.477C304.728 24.4233 304.699 24.3653 304.645 24.3475Z" fill="#2B3F5D"/>
<path d="M304.152 24.184L303.962 24.121C303.908 24.1033 303.85 24.1324 303.833 24.1862L303.83 24.1935C303.812 24.2472 303.842 24.3052 303.895 24.323L304.085 24.3859C304.139 24.4036 304.197 24.3745 304.215 24.3207L304.217 24.3134C304.235 24.2597 304.206 24.2017 304.152 24.184Z" fill="#2B3F5D"/>
<path d="M303.025 23.7868L302.794 23.7103C302.729 23.6888 302.659 23.7241 302.637 23.7892L302.634 23.7987C302.612 23.8637 302.648 23.9339 302.713 23.9554L302.944 24.0319C303.009 24.0534 303.079 24.0181 303.101 23.953L303.104 23.9435C303.125 23.8785 303.09 23.8083 303.025 23.7868Z" fill="#2B3F5D"/>
<path d="M302.426 23.589L302.195 23.5126C302.13 23.4911 302.06 23.5264 302.039 23.5914L302.035 23.6009C302.014 23.666 302.049 23.7361 302.114 23.7577L302.345 23.8341C302.41 23.8556 302.481 23.8203 302.502 23.7553L302.505 23.7458C302.527 23.6807 302.492 23.6106 302.426 23.589Z" fill="#2B3F5D"/>
<path d="M300.983 23.112L300.751 23.0355C300.686 23.014 300.616 23.0493 300.595 23.1144L300.591 23.1239C300.57 23.1889 300.605 23.2591 300.67 23.2806L300.901 23.3571C300.966 23.3786 301.037 23.3433 301.058 23.2782L301.061 23.2687C301.083 23.2037 301.048 23.1335 300.983 23.112Z" fill="#2B3F5D"/>
<path d="M300.385 22.9133L300.154 22.8368C300.088 22.8153 300.018 22.8506 299.997 22.9156L299.994 22.9251C299.972 22.9902 300.007 23.0604 300.072 23.0819L300.304 23.1583C300.369 23.1798 300.439 23.1446 300.46 23.0795L300.464 23.07C300.485 23.0049 300.45 22.9348 300.385 22.9133Z" fill="#2B3F5D"/>
<path d="M302.351 26.1289C302.299 26.1119 302.271 26.0564 302.288 26.0052L302.365 25.7741C302.382 25.7229 302.437 25.6949 302.488 25.7119C302.54 25.7288 302.568 25.7843 302.551 25.8355L302.474 26.0667C302.457 26.1179 302.402 26.1458 302.351 26.1289Z" fill="#2B3F5D"/>
<path d="M298.649 22.7648C298.553 22.7331 298.501 22.629 298.533 22.5331L298.562 22.4446C298.594 22.3488 298.698 22.2964 298.794 22.3281C298.89 22.3598 298.942 22.464 298.91 22.5598L298.881 22.6483C298.849 22.7441 298.745 22.7965 298.649 22.7648Z" fill="#2B3F5D"/>
<path opacity="0.3" d="M277.2 13.4398C276.931 13.351 276.627 13.3006 276.717 13.0277C276.769 12.8704 276.908 12.8174 277.026 12.8564C277.294 12.9452 277.599 12.9956 277.509 13.2685C277.457 13.4258 277.318 13.4788 277.2 13.4398Z" fill="#617FB3"/>
<path opacity="0.2" d="M277.118 12.9938C277.113 12.9458 277.062 12.9323 277.026 12.9477C276.977 12.9683 276.959 13.0232 276.935 13.0688C276.91 13.1164 276.887 13.1591 276.875 13.2113C276.863 13.2681 276.919 13.3174 276.966 13.2737C277.006 13.236 277.032 13.1926 277.062 13.1448C277.092 13.094 277.125 13.0545 277.118 12.9931L277.118 12.9938Z" fill="white"/>
<path opacity="0.2" d="M277.37 13.1347C277.378 13.0692 277.312 13.0384 277.261 13.0607C277.209 13.084 277.18 13.1508 277.162 13.2047C277.143 13.26 277.148 13.3139 277.161 13.3684C277.17 13.4037 277.224 13.4251 277.244 13.3838C277.264 13.3433 277.29 13.3072 277.31 13.2667C277.333 13.2206 277.363 13.1886 277.37 13.1355L277.37 13.1347Z" fill="white"/>
<path opacity="0.3" d="M281.769 15.1175C281.501 15.0287 281.196 14.9783 281.286 14.7054C281.338 14.5481 281.477 14.4952 281.595 14.5341C281.864 14.6229 282.168 14.6734 282.078 14.9462C282.026 15.1035 281.887 15.1565 281.769 15.1175Z" fill="#617FB3"/>
<path opacity="0.2" d="M281.628 14.5958C281.542 14.5721 281.487 14.678 281.458 14.7487C281.425 14.8297 281.423 14.8972 281.473 14.9648C281.481 14.9755 281.5 14.9769 281.509 14.9662C281.532 14.9396 281.559 14.9144 281.575 14.8824C281.593 14.8463 281.605 14.8129 281.629 14.7802C281.667 14.728 281.718 14.6207 281.628 14.5955L281.628 14.5958Z" fill="white"/>
<path opacity="0.2" d="M281.952 14.7485C281.954 14.7103 281.928 14.6779 281.892 14.6765C281.791 14.6724 281.727 14.7917 281.706 14.8829C281.696 14.9268 281.702 14.9799 281.717 15.0212C281.727 15.0514 281.762 15.0923 281.798 15.0686C281.843 15.0387 281.857 14.9688 281.879 14.92C281.903 14.8646 281.95 14.8102 281.952 14.7485Z" fill="white"/>
<path opacity="0.3" d="M277.748 15.4846C277.636 15.3932 277.465 15.3741 277.327 15.342C277.186 15.3092 277.037 15.2545 276.892 15.2592C276.874 15.2598 276.864 15.2825 276.881 15.2936C277.008 15.3803 277.175 15.4162 277.321 15.4651C277.453 15.5089 277.593 15.5753 277.733 15.5577C277.771 15.5532 277.771 15.5045 277.747 15.4843L277.748 15.4846Z" fill="#617FB3"/>
<path opacity="0.3" d="M279.217 15.969C279.007 15.8324 278.71 15.7853 278.472 15.7154C278.425 15.7014 278.404 15.767 278.448 15.7871C278.676 15.8894 278.931 16.045 279.181 16.0773C279.24 16.0847 279.263 15.9992 279.217 15.969Z" fill="#617FB3"/>
<path opacity="0.3" d="M283.234 17.2638C283.178 17.2525 283.147 17.3325 283.205 17.3509C283.442 17.4259 283.773 17.7375 284.031 17.6328C284.229 17.5517 283.252 17.2675 283.234 17.2638Z" fill="#617FB3"/>
<path opacity="0.3" d="M285.481 17.9982C285.138 17.8189 284.408 17.7617 284.648 17.8605C285.692 18.2903 285.507 18.0115 285.481 17.9982Z" fill="#617FB3"/>
<path opacity="0.3" d="M286.044 19.4131C286.056 19.3439 285.952 19.2788 285.886 19.3609C285.83 19.4314 285.817 19.5084 285.763 19.5281C285.699 19.5506 285.663 19.4674 285.621 19.5191C285.523 19.6385 285.98 19.8114 286.045 19.4134L286.044 19.4131Z" fill="#617FB3"/>
<path opacity="0.3" d="M287.84 19.9809C287.829 19.8886 287.712 19.8899 287.664 19.947C287.618 20.0017 287.57 20.2486 287.45 20.1588C287.354 20.0864 287.388 20.367 287.638 20.2987C287.769 20.2625 287.857 20.1122 287.841 19.9812L287.84 19.9809Z" fill="#617FB3"/>
<path opacity="0.3" d="M290.228 20.7909C290.207 20.7554 290.169 20.7511 290.136 20.7733C290.102 20.7963 290.101 20.8351 290.088 20.8704C290.039 21.0028 289.939 21.007 289.898 20.9471C289.87 20.9053 289.807 20.9527 289.827 20.9951C289.949 21.2513 290.322 20.951 290.227 20.7914L290.228 20.7909Z" fill="#617FB3"/>
<path opacity="0.3" d="M291.834 20.8953C291.841 20.8532 291.782 20.8311 291.753 20.8566C291.631 20.9677 291.561 21.137 291.464 21.2715C290.745 22.2754 291.76 21.2985 291.834 20.8953Z" fill="#617FB3"/>
<path opacity="0.3" d="M292.396 21.113C292.407 21.0696 292.354 21.0254 292.318 21.0613C292.243 21.1348 291.789 21.8423 291.768 21.8842C291.644 22.1435 292.308 21.4587 292.396 21.113Z" fill="#617FB3"/>
<path opacity="0.3" d="M292.964 21.203C292.725 21.4404 292.546 21.7585 292.359 22.037C292.326 22.0868 292.399 22.1322 292.436 22.0882C292.646 21.8331 292.897 21.5735 293.053 21.2802C293.082 21.2251 293.016 21.1519 292.964 21.203Z" fill="#617FB3"/>
<path opacity="0.3" d="M293.917 22.3645C293.753 22.4667 293.174 23.547 293.452 23.2796C293.723 23.0194 294.132 22.2302 293.917 22.3645Z" fill="#617FB3"/>
<path opacity="0.3" d="M295.488 22.7789C295.501 22.7043 295.394 22.6982 295.368 22.756C295.365 22.7626 294.971 23.7182 294.969 23.7248C294.907 23.9557 295.369 23.4965 295.488 22.7789Z" fill="#617FB3"/>
<path opacity="0.3" d="M295.963 23.0051C295.972 22.9466 295.883 22.9219 295.854 22.9693C295.822 23.022 295.466 23.8561 295.448 23.9174C295.358 24.2068 295.867 23.5682 295.963 23.0051Z" fill="#617FB3"/>
<path opacity="0.3" d="M298.775 22.4766C298.746 22.5215 298.732 22.5712 298.7 22.6134C298.54 22.5863 298.665 22.7804 298.797 22.6593C298.99 22.4819 298.82 22.4055 298.775 22.4766Z" fill="#617FB3"/>
<path opacity="0.3" d="M300.453 23.0385C300.468 22.8796 300.017 22.9754 300.19 23.0289C300.244 23.0458 300.441 23.1509 300.453 23.0385Z" fill="#617FB3"/>
<path opacity="0.3" d="M300.992 23.2197C300.972 23.1425 300.892 23.1758 300.783 23.1391C300.701 23.1112 300.652 23.2719 300.922 23.3027C300.967 23.308 301.003 23.2596 300.992 23.2197Z" fill="#617FB3"/>
<path opacity="0.3" d="M302.443 23.6908C302.375 23.5888 302.096 23.6102 302.202 23.6774C302.423 23.8197 302.472 23.7336 302.443 23.6908Z" fill="#617FB3"/>
<path opacity="0.3" d="M303.058 23.9057C303.025 23.8437 302.976 23.8772 302.855 23.8282C302.804 23.8074 302.777 23.8796 302.815 23.9099C303.024 24.0739 303.082 23.9537 303.057 23.9055L303.058 23.9057Z" fill="#617FB3"/>
<path opacity="0.3" d="M304.174 24.2688C304.077 24.1433 303.924 24.295 304.075 24.3448C304.179 24.3792 304.205 24.3082 304.174 24.2688Z" fill="#617FB3"/>
<path opacity="0.3" d="M304.487 24.3812C304.401 24.3812 304.471 24.4909 304.556 24.5046C304.728 24.5337 304.702 24.3807 304.487 24.3812Z" fill="#617FB3"/>
<path opacity="0.3" d="M305.508 24.6947C305.402 24.7254 305.566 24.8975 305.642 24.8128C305.709 24.7361 305.574 24.6631 305.508 24.6947Z" fill="#617FB3"/>
<path opacity="0.3" d="M306.1 24.9068C305.959 24.7654 305.82 24.9207 305.984 24.9863C306.077 25.0236 306.144 24.9506 306.1 24.9068Z" fill="#617FB3"/>
<path opacity="0.3" d="M306.705 24.4132C306.696 24.3665 306.618 24.3701 306.62 24.42C306.624 24.6439 306.5 24.6881 306.452 24.7808C306.35 24.9745 306.797 24.8835 306.705 24.4135L306.705 24.4132Z" fill="#617FB3"/>
<path opacity="0.3" d="M298.904 23.8142C298.922 24.0376 298.612 24.6428 298.502 24.837C298.456 24.9193 298.58 24.9999 298.623 24.9176C299.216 23.7866 298.898 23.7491 298.904 23.8142Z" fill="#617FB3"/>
<path opacity="0.3" d="M299.35 23.9535C299.313 23.9322 299.328 24.1175 299.121 24.5352C298.78 25.2234 299.044 25.0476 299.053 25.0232C299.24 24.5688 299.523 24.053 299.35 23.9535Z" fill="#617FB3"/>
<path opacity="0.3" d="M299.802 24.1297C299.835 23.799 299.463 24.8542 299.339 25.1174C299.302 25.1955 299.431 25.2388 299.467 25.1598C299.612 24.8361 299.766 24.4863 299.802 24.1297Z" fill="#617FB3"/>
<path opacity="0.3" d="M300.767 24.4275C300.745 24.3147 300.612 24.7485 300.518 24.9488C300.155 25.7167 300.424 25.5555 300.437 25.5209C300.742 24.729 300.804 24.6099 300.768 24.4285L300.767 24.4275Z" fill="#617FB3"/>
<path opacity="0.3" d="M302.208 25.7015C302.205 25.6696 302.137 25.5845 302.058 25.8125C301.921 26.2102 302.224 25.8764 302.208 25.7015Z" fill="#617FB3"/>
<path opacity="0.3" d="M302.39 25.8901C302.324 26.0598 302.409 26.1206 302.451 26.0588C302.67 25.7376 302.468 25.6886 302.39 25.8901Z" fill="#617FB3"/>
<path opacity="0.5" d="M282.136 17.04C281.879 17.3016 281.925 17.3258 280.767 19.177C280.352 19.84 280.481 19.9104 279.67 19.6218C279.254 19.4737 278.821 19.2939 278.387 19.2089C278.352 19.2022 278.319 19.2505 278.357 19.2711C278.786 19.5111 279.282 19.6646 279.742 19.837C280.051 19.953 280.339 20.1473 280.578 19.8392C280.629 19.7733 282.182 17.4522 282.296 17.1458C282.33 17.0556 282.206 16.9689 282.136 17.04Z" fill="#617FB3"/>
<path opacity="0.3" d="M303.345 21.5513C302.906 21.2745 302.303 21.1724 301.812 21.0027C301.265 20.8147 300.723 20.6152 300.19 20.3932C299.944 20.2907 299.701 20.1814 299.458 20.0726C299.363 20.0297 299.204 19.9316 299.09 19.9962C298.852 20.131 299.162 20.5816 299.236 20.7118C299.251 20.7378 299.292 20.7245 299.287 20.6943C299.27 20.5989 299.11 20.1911 299.223 20.1531C299.302 20.1263 299.692 20.3754 299.765 20.4096C300.149 20.5875 300.538 20.7521 300.931 20.9085C301.324 21.0653 301.719 21.2139 302.116 21.3582C302.487 21.4931 302.89 21.6978 303.285 21.7341C303.382 21.7429 303.427 21.6034 303.345 21.552L303.345 21.5513Z" fill="#617FB3"/>
<path opacity="0.3" d="M301.619 21.3638C301.018 21.2244 300.472 21.061 299.903 20.8223C299.869 20.808 299.854 20.8556 299.877 20.8748C300.346 21.2643 300.989 21.4972 301.597 21.4784C301.659 21.4761 301.688 21.3795 301.619 21.3631L301.619 21.3638Z" fill="#617FB3"/>
<g opacity="0.16">
<path d="M293.12 13.6753C292.905 14.0199 292.656 14.3716 292.424 14.6658C292.021 14.5634 291.63 14.4754 291.266 14.4112C291.46 14.1675 291.798 13.7917 292.162 13.4242C292.439 13.4874 292.756 13.5697 293.121 13.6756L293.12 13.6753Z" fill="#E5F1FF"/>
<path d="M296.715 14.9113C296.442 15.2058 296.163 15.494 295.891 15.7897C295.358 15.5816 294.703 15.3463 294.014 15.126C294.231 14.8131 294.473 14.484 294.703 14.1892C295.37 14.421 296.049 14.6643 296.716 14.9115L296.715 14.9113Z" fill="#E5F1FF"/>
<path d="M298.29 15.511C298.071 15.859 297.805 16.2419 297.56 16.569C297.365 16.4706 297.175 16.3696 296.993 16.2711C296.946 16.2449 296.89 16.2178 296.828 16.1875C297.122 15.8303 297.46 15.4957 297.59 15.3674C297.623 15.3359 297.654 15.3049 297.685 15.2754C297.89 15.3536 298.091 15.4323 298.29 15.5113L298.29 15.511Z" fill="#E5F1FF"/>
<path d="M299.411 15.9703C299.288 16.1643 299.162 16.3556 299.038 16.546C298.908 16.7473 298.795 16.9264 298.696 17.0836C298.395 16.9695 298.084 16.8291 297.777 16.679C298.066 16.3414 298.373 15.9915 298.682 15.6694C298.932 15.7706 299.176 15.8707 299.411 15.9703Z" fill="#E5F1FF"/>
<path d="M303.009 19.4228C302.879 19.4892 302.73 19.5032 302.49 19.4238C302.343 19.3754 302.133 19.3057 301.901 19.2047C301.749 18.7372 301.548 18.0038 301.163 16.8036C301.16 16.7937 301.157 16.7846 301.154 16.7754C301.578 16.9934 301.931 17.2012 302.191 17.3926C302.587 18.1485 302.94 18.9664 303.009 19.4228Z" fill="#E5F1FF"/>
<path d="M301.291 18.1329C301.273 17.8537 301.109 17.6338 300.975 17.3978C300.864 17.2029 300.761 16.8946 300.555 16.7826C300.537 16.7726 300.515 16.7785 300.508 16.7987C300.429 17.0241 300.574 17.3076 300.649 17.5189C301.041 18.6267 301.296 18.2231 301.291 18.1329Z" fill="#E5F1FF"/>
<path d="M291.605 16.3478C291.54 16.5 291.462 16.6359 291.422 16.7021C291.289 16.9171 291.087 17.1059 290.921 17.2968C290.8 17.4355 290.686 17.5462 290.579 17.6317C290.244 17.4965 289.883 17.3521 289.506 17.2007C289.517 17.1337 289.538 17.0691 289.568 17.01C289.695 16.7663 290.144 16.2999 290.61 15.9815C290.946 16.103 291.278 16.2253 291.604 16.3486L291.605 16.3478Z" fill="#E5F1FF"/>
<path d="M293.745 17.2145C293.597 17.5048 293.357 17.7461 293.144 17.9961C293.011 18.1519 292.879 18.3272 292.735 18.4915C292.689 18.4731 292.641 18.4549 292.595 18.4363C292.39 18.3563 292.034 18.2144 291.576 18.0312C291.786 17.7247 292.093 17.4635 292.352 17.2166C292.522 17.0551 292.673 16.9241 292.809 16.8198C293.138 16.953 293.452 17.0851 293.745 17.2155L293.745 17.2145Z" fill="#E5F1FF"/>
<path d="M295.527 18.1465C295.291 18.5255 294.904 18.8982 294.512 19.2027C294.242 19.0915 293.962 18.9787 293.665 18.8595C293.996 18.3424 294.375 17.9441 294.719 17.6764C294.832 17.7351 294.94 17.7934 295.04 17.8501C295.217 17.9499 295.378 18.0487 295.528 18.146L295.527 18.1465Z" fill="#E5F1FF"/>
<path d="M296.092 18.555C295.918 18.7806 295.708 18.9767 295.504 19.1833C295.424 19.2639 295.324 19.3821 295.215 19.4896C295.09 19.4377 294.964 19.3864 294.837 19.3335C294.964 19.159 295.143 18.9958 295.248 18.874C295.42 18.6774 295.579 18.4795 295.759 18.3029C295.879 18.3871 295.99 18.4717 296.092 18.554L296.092 18.555Z" fill="#E5F1FF"/>
</g>
<path opacity="0.2" d="M302.449 13.6555C302.209 13.5372 302.447 13.6614 299.895 12.6674C298.28 12.0382 298.008 12.6146 298.178 12.6149C299.038 12.6134 298.83 12.4757 300.114 13.0796C302.887 14.3838 302.549 13.7048 302.449 13.6555Z" fill="white"/>
<path opacity="0.2" d="M302.73 12.3707C302.621 11.7837 301.404 12.1779 301.516 12.826C301.561 13.0896 301.881 12.5881 302.071 12.4928C302.336 12.3604 302.781 12.6422 302.73 12.3707Z" fill="white"/>
<path opacity="0.2" d="M302.683 11.3628C302.737 11.1434 302.855 10.9245 302.874 10.701C302.881 10.6213 302.746 10.416 302.384 11.2636C302.304 11.4514 302.173 11.6873 302.327 11.8609C302.36 11.8977 302.413 11.9063 302.456 11.8857C302.65 11.7956 302.637 11.5495 302.683 11.3625L302.683 11.3628Z" fill="white"/>
<path opacity="0.2" d="M304.918 15.9359C304.939 15.442 303.891 15.5782 304.074 16.2647C304.159 16.5841 304.272 15.7808 304.662 15.9996C304.768 16.0591 304.913 16.0568 304.918 15.9349L304.918 15.9359Z" fill="white"/>
<path opacity="0.2" d="M305.716 16.3799C305.651 15.9834 304.843 16.2194 305.102 16.6969C305.139 16.7653 305.242 16.7433 305.248 16.6658C305.254 16.601 305.309 16.5244 305.374 16.5077C305.422 16.4954 305.458 16.5289 305.508 16.5375C305.593 16.5615 305.738 16.5112 305.716 16.3797L305.716 16.3799Z" fill="white"/>
<path opacity="0.2" d="M304.03 22.0885C304.236 21.168 303.736 22.0107 303.733 22.4301C303.732 22.5532 303.92 22.5837 304.03 22.0885Z" fill="white"/>
<path opacity="0.3" d="M280.572 16.5365C280.596 16.4292 280.488 16.3576 280.399 16.4216C279.946 16.7473 279.05 18.4143 278.912 18.807C278.686 19.4527 280.441 17.1157 280.572 16.5358L280.572 16.5365Z" fill="#617FB3"/>
<path opacity="0.1" d="M281.247 16.7694C281.261 16.6946 281.207 16.5865 281.113 16.6194C280.702 16.7595 280.429 17.2813 280.194 17.6213C279.364 18.8199 279.405 19.2742 279.598 19.0506C279.915 18.6831 280.181 18.2721 280.469 17.8811C280.709 17.554 281.172 17.1714 281.247 16.7694Z" fill="#617FB3"/>
<path opacity="0.1" d="M281.508 16.8477C280.802 17.451 279.802 19.3895 280.152 19.137C280.564 18.8412 281.56 17.3837 281.723 16.9895C281.776 16.8625 281.603 16.7656 281.508 16.8477Z" fill="#617FB3"/>
<path opacity="0.2" d="M276.096 16.8134C276.112 16.4932 275.836 16.1642 275.706 15.8775C275.549 15.5345 275.411 15.1845 275.267 14.8364C274.662 13.3809 273.504 11.7333 274.443 13.8853C275.402 16.0821 275.498 16.7342 275.928 16.9289C276.005 16.9642 276.093 16.8895 276.097 16.813L276.096 16.8134Z" fill="white"/>
</g>
<defs>
<linearGradient id="paint0_linear_245_2857" x1="229.5" y1="12" x2="229.5" y2="102.5" gradientUnits="userSpaceOnUse">
<stop stop-color="#E8F1FF"/>
<stop offset="1" stop-color="#CDE1FF" stop-opacity="0"/>
</linearGradient>
</defs>
</svg>
