<svg width="60" height="11" viewBox="0 0 60 11" fill="none" xmlns="http://www.w3.org/2000/svg">
<path d="M11.7474 0.829473L11.5074 1.19579C10.6063 2.59368 9.83158 3.83158 9.18316 4.90947C8.54316 5.97895 8.00842 6.96421 7.57895 7.86526V10H4.28211V7.65053C3.97053 7.01895 3.60421 6.37053 3.18316 5.70526C2.76211 5.03158 2.16421 4.10947 1.38947 2.93895C0.783158 2.04632 0.32 1.34316 0 0.829473H3.53684C3.78947 1.34316 4.20211 2.10526 4.77474 3.11579C5.34737 4.14316 5.73895 4.86737 5.94947 5.28842C6.24421 4.67368 6.64 3.92 7.13684 3.02737C7.7179 1.98316 8.10947 1.25053 8.31158 0.829473H11.7474ZM19.001 7.90316C19.001 8.18947 19.0346 8.39158 19.102 8.50947C19.1694 8.62737 19.3041 8.71158 19.5062 8.76211L19.4557 9.94947C19.1862 9.99158 18.9504 10.0211 18.7483 10.0379C18.5546 10.0547 18.2936 10.0632 17.9652 10.0632C17.241 10.0632 16.761 9.90316 16.5252 9.58316C16.2894 9.25474 16.1715 8.83789 16.1715 8.33263V8.01684C15.9273 8.70737 15.5694 9.22105 15.0978 9.55789C14.6346 9.89474 14.041 10.0632 13.3167 10.0632C12.4746 10.0632 11.8388 9.89474 11.4094 9.55789C10.9883 9.22105 10.7778 8.72 10.7778 8.05474C10.7778 7.50737 10.9588 7.07789 11.321 6.76632C11.6831 6.45474 12.2431 6.24 13.001 6.1221C12.361 5.66737 11.721 5.27158 11.081 4.93474C11.5862 4.29474 12.1631 3.81053 12.8115 3.4821C13.4599 3.14526 14.2473 2.97684 15.1736 2.97684C16.4704 2.97684 17.4304 3.25895 18.0536 3.82316C18.6852 4.37895 19.001 5.23789 19.001 6.4V7.90316ZM15.4388 5.2C15.0094 5.2 14.6304 5.27158 14.302 5.41474C13.9736 5.55789 13.6788 5.77263 13.4178 6.05895C13.9231 6 14.5546 5.97053 15.3125 5.97053C15.6241 5.97053 15.8431 5.93263 15.9694 5.85684C16.0957 5.78105 16.1589 5.68421 16.1589 5.56632C16.1589 5.46526 16.0957 5.38105 15.9694 5.31368C15.8431 5.23789 15.6662 5.2 15.4388 5.2ZM14.1125 8.00421C14.5841 8.00421 15.0094 7.91579 15.3883 7.73895C15.7673 7.55368 16.0283 7.31368 16.1715 7.01895V6.69053C15.9694 6.79158 15.7462 6.87158 15.502 6.93053C15.2578 6.98105 14.9631 7.03158 14.6178 7.08211L14.1631 7.15789C13.6915 7.25053 13.4557 7.41053 13.4557 7.63789C13.4557 7.88211 13.6746 8.00421 14.1125 8.00421ZM25.9889 5.36421C25.2141 5.31368 24.5068 5.27579 23.8668 5.25053L23.8541 6.58947C23.8541 7.04421 23.951 7.40211 24.1447 7.66316C24.3468 7.91579 24.7005 8.04211 25.2057 8.04211C25.3994 8.04211 25.5847 8.02526 25.7615 7.99158C25.7278 8.30316 25.711 8.61895 25.711 8.93895C25.711 9.09053 25.7194 9.43579 25.7363 9.97474C25.3657 10.0421 25.0541 10.0842 24.8015 10.1011C24.5489 10.1179 24.2205 10.1263 23.8163 10.1263C22.831 10.1263 22.132 9.89053 21.7194 9.41895C21.3152 8.93895 21.1131 8.27368 21.1131 7.42316L21.1257 5.28842C20.7299 5.30526 20.3173 5.33053 19.8878 5.36421V3.12842C20.3257 3.12842 20.6963 2.98947 20.9994 2.71158C21.3026 2.43368 21.4836 2.10105 21.5426 1.71368H24.9784C24.5489 2.30316 24.0731 2.77474 23.551 3.12842H25.9889V5.36421ZM31.8359 6.55158C31.8528 6.98105 31.9875 7.32632 32.2401 7.58737C32.5012 7.84842 32.8843 7.97895 33.3896 7.97895C33.6675 7.97895 33.9159 7.92842 34.1349 7.82737C34.3538 7.71789 34.5559 7.55789 34.7412 7.34737C35.457 7.62526 36.2949 7.86526 37.2549 8.06737C36.977 8.71579 36.5054 9.22105 35.8401 9.58316C35.1833 9.94526 34.3286 10.1263 33.2759 10.1263C31.8696 10.1263 30.8296 9.79789 30.1559 9.14105C29.4822 8.48421 29.1454 7.62105 29.1454 6.55158C29.1454 5.48211 29.4822 4.61895 30.1559 3.9621C30.8296 3.30526 31.8696 2.97684 33.2759 2.97684C34.3286 2.97684 35.1833 3.15789 35.8401 3.52C36.5054 3.8821 36.977 4.38737 37.2549 5.03579C36.5054 5.19579 35.6675 5.43579 34.7412 5.75579C34.5559 5.54526 34.3538 5.38947 34.1349 5.28842C33.9159 5.17895 33.6675 5.12421 33.3896 5.12421C32.8843 5.12421 32.5012 5.25474 32.2401 5.51579C31.9875 5.77684 31.8528 6.12211 31.8359 6.55158ZM41.1711 4.94737C41.1626 5.45263 41.1584 6.22737 41.1584 7.27158C41.1584 8.52632 41.1668 9.43579 41.1837 10H38.2026L38.2153 8.57263C38.2321 7.00632 38.2405 5.79789 38.2405 4.94737C38.2405 4.13895 38.2321 2.99368 38.2153 1.51158L38.2026 0.147368H41.1837C41.1668 1.34316 41.1584 2.32 41.1584 3.07789C41.1584 3.92 41.1626 4.54316 41.1711 4.94737ZM49.9678 3.10316C49.9088 4.16421 49.8793 5.30947 49.8793 6.53895C49.8793 7.77684 49.9088 8.93053 49.9678 10C49.4288 9.97474 49.0036 9.96211 48.692 9.96211C48.3972 9.96211 47.972 9.97474 47.4162 10L47.0499 8.14316C46.8562 8.81684 46.553 9.31789 46.1404 9.64632C45.7278 9.96632 45.2478 10.1263 44.7004 10.1263C44.1951 10.1263 43.7572 10.0168 43.3867 9.79789C43.0162 9.57053 42.7341 9.26737 42.5404 8.88842C42.3551 8.50947 42.2625 8.08421 42.2625 7.61263V5.79368C42.2625 4.67368 42.2414 3.77684 42.1993 3.10316H45.0414C44.9909 4.34105 44.9657 5.56632 44.9657 6.77895C44.9657 7.14947 45.0541 7.44421 45.2309 7.66316C45.4162 7.88211 45.6478 7.99158 45.9257 7.99158C46.1867 7.99158 46.4141 7.87789 46.6078 7.65053C46.8099 7.41474 46.932 7.09474 46.9741 6.69053V6.4C46.9909 5.74316 46.9993 5.28842 46.9993 5.03579C46.9993 4.45474 46.9825 3.81053 46.9488 3.10316H49.9678ZM56.4643 2.97684C57.0286 2.97684 57.5296 3.14947 57.9675 3.49474C58.4138 3.83158 58.7591 4.2821 59.0033 4.84632C59.2475 5.4021 59.3696 5.99579 59.3696 6.62737C59.3696 7.26737 59.2475 7.85684 59.0033 8.39579C58.7591 8.92632 58.418 9.34737 57.9801 9.65895C57.5422 9.97053 57.0496 10.1263 56.5022 10.1263C55.8622 10.1263 55.3065 9.99158 54.8349 9.72211C54.3633 9.44421 54.0096 9.01053 53.7738 8.42105L53.4075 10H50.9822C51.0328 8.41684 51.058 6.77895 51.058 5.08632C51.058 3.37684 51.0328 1.73895 50.9822 0.172631H53.837L53.7991 1.72632C53.757 2.82105 53.7359 3.79789 53.7359 4.65684C53.9633 4.08421 54.3086 3.66316 54.7717 3.39368C55.2433 3.11579 55.8075 2.97684 56.4643 2.97684ZM55.1759 8.00421C55.5801 8.00421 55.9001 7.86947 56.1359 7.6C56.3717 7.33053 56.4896 6.98105 56.4896 6.55158C56.4896 6.16421 56.3591 5.85263 56.098 5.61684C55.8454 5.37263 55.5296 5.25053 55.1507 5.25053C54.957 5.25053 54.7549 5.29684 54.5443 5.38947C54.3338 5.47368 54.1528 5.61684 54.0012 5.81895C53.8496 6.01263 53.7738 6.25684 53.7738 6.55158C53.7738 7.07368 53.8917 7.44842 54.1275 7.67579C54.3633 7.89474 54.7128 8.00421 55.1759 8.00421Z" fill="#757575"/>
</svg>
