<svg width="12" height="12" viewBox="0 0 12 12" fill="none" xmlns="http://www.w3.org/2000/svg">
<g clip-path="url(#clip0_245_3065)">
<path fill-rule="evenodd" clip-rule="evenodd" d="M12 6C12 9.31371 9.31371 12 6 12C2.68629 12 0 9.31371 0 6C0 2.68629 2.68629 0 6 0C9.31371 0 12 2.68629 12 6ZM6.21501 4.42946C5.63142 4.6722 4.46507 5.1746 2.71595 5.93666C2.43192 6.04961 2.28313 6.16011 2.26958 6.26815C2.24669 6.45075 2.47536 6.52265 2.78673 6.62056C2.82909 6.63388 2.87298 6.64768 2.91797 6.6623C3.22432 6.76189 3.63641 6.87839 3.85064 6.88302C4.04497 6.88721 4.26186 6.8071 4.50132 6.64267C6.13558 5.5395 6.97919 4.9819 7.03216 4.96988C7.06952 4.9614 7.1213 4.95074 7.15638 4.98192C7.19147 5.01311 7.18802 5.07216 7.1843 5.088C7.16165 5.18457 6.26406 6.01905 5.79956 6.45089C5.65475 6.58551 5.55204 6.68101 5.53104 6.70282C5.484 6.75167 5.43606 6.79789 5.38999 6.8423C5.10538 7.11666 4.89196 7.32241 5.40181 7.65839C5.64682 7.81985 5.84288 7.95337 6.03848 8.08657C6.25209 8.23204 6.46515 8.37713 6.74081 8.55783C6.81104 8.60387 6.87811 8.65169 6.94345 8.69826C7.19204 8.87549 7.41537 9.03471 7.69129 9.00932C7.85162 8.99456 8.01723 8.84381 8.10134 8.39418C8.30011 7.33157 8.69081 5.02923 8.78111 4.08049C8.78902 3.99736 8.77907 3.89099 8.77108 3.84429C8.76308 3.79759 8.74638 3.73105 8.68568 3.6818C8.6138 3.62347 8.50282 3.61117 8.45318 3.61204C8.22751 3.61602 7.88128 3.73641 6.21501 4.42946Z" fill="#757575"/>
</g>
<defs>
<clipPath id="clip0_245_3065">
<rect width="12" height="12" fill="white"/>
</clipPath>
</defs>
</svg>
